<?xml version="1.0" encoding="utf-8"?>
<!-- Generator: Adobe Illustrator 24.3.0, SVG Export Plug-In . SVG Version: 6.00 Build 0)  -->
<svg version="1.0" id="Layer_1" xmlns="http://www.w3.org/2000/svg" xmlns:xlink="http://www.w3.org/1999/xlink" x="0px" y="0px"
	 viewBox="0 0 32 32" style="enable-background:new 0 0 32 32;" xml:space="preserve">
<path d="M17.5,5.3c0,0.1,0,0.3,0,0.4c0,8.2,0,16.3,0,24.5c0,0.9-0.4,1.4-1.2,1.6c-0.8,0.2-1.6-0.4-1.7-1.2c0-0.2,0-0.4,0-0.6
	c0-8.1,0-16.1,0-24.2c0-0.1,0-0.3,0-0.5c-0.1,0.1-0.2,0.2-0.3,0.3c-1.5,1.5-2.9,2.9-4.4,4.4c-0.4,0.4-0.9,0.6-1.4,0.4
	c-0.6-0.2-0.9-0.6-1-1.2C7.3,8.6,7.5,8.2,7.8,7.9c0.6-0.7,1.3-1.3,1.9-1.9c1.7-1.7,3.4-3.4,5.1-5.1c0.8-0.8,1.6-0.8,2.3,0
	c2.3,2.3,4.6,4.6,6.9,6.9c0.4,0.4,0.7,0.9,0.5,1.6c-0.3,1-1.4,1.3-2.2,0.7c-0.1-0.1-0.2-0.2-0.3-0.3c-1.4-1.4-2.8-2.8-4.2-4.2
	C17.7,5.4,17.6,5.3,17.5,5.3C17.5,5.2,17.5,5.3,17.5,5.3z"/>
</svg>
