<?xml version="1.0" encoding="utf-8"?>
<!-- Generator: Adobe Illustrator 24.3.0, SVG Export Plug-In . SVG Version: 6.00 Build 0)  -->
<svg version="1.0" id="Layer_1" xmlns="http://www.w3.org/2000/svg" xmlns:xlink="http://www.w3.org/1999/xlink" x="0px" y="0px"
	 viewBox="0 0 32 32" style="enable-background:new 0 0 32 32;" xml:space="preserve">
<g>
	<path d="M4.6,31.8c-0.2-0.2-0.4-0.3-0.6-0.5c-0.2-0.3-0.2-0.6,0-0.9c0.2-0.3,0.4-0.7,0.6-1c0.5,0.3,1.1,0.6,1.6,0.9
		c-0.4,0.5-0.6,1.1-1.2,1.4C5,31.8,4.8,31.8,4.6,31.8z"/>
	<path d="M26.9,31.8c-0.6-0.3-0.8-0.9-1.2-1.4c0.6-0.3,1.1-0.6,1.6-0.9c0.2,0.3,0.4,0.6,0.6,1c0.3,0.5,0.1,1-0.4,1.3
		c-0.1,0-0.1,0.1-0.2,0.1C27.2,31.8,27,31.8,26.9,31.8z"/>
	<path d="M2.1,18.1c0.4,0.1,0.7,0.2,1,0.4c3.8,1.4,7.7,2,11.7,2c4.9,0,9.8,0,14.6,0c0.1,0,0.3,0,0.5,0c-0.1,0.7-0.1,1.4-0.2,2.1
		c-0.8,3.9-4.1,6.8-8.2,6.8c-3.7,0-7.5,0-11.2,0c-4.2,0-7.6-3.1-8.2-7.2c0-0.3-0.1-0.6-0.1-1C2.1,20.2,2.1,19.2,2.1,18.1z"/>
	<path d="M21.4,18.6c-2.5,0-5,0-7.5,0c-4.4-0.1-8.5-1-12.5-2.8c-1-0.5-1.5-1.6-1-2.6c0.4-1,1.5-1.5,2.6-1C4.8,13,6.6,13.6,8.5,14
		c2.1,0.5,4.2,0.7,6.3,0.7c4.9,0,9.8,0,14.8,0c1.1,0,1.9,0.6,2.1,1.6c0.2,1.2-0.6,2.3-1.8,2.3c-1.1,0-2.2,0-3.3,0
		C24.8,18.6,23.1,18.6,21.4,18.6C21.4,18.6,21.4,18.6,21.4,18.6z"/>
	<path d="M5.2,11.1c-0.6-0.3-1.2-0.5-1.9-0.8c0-0.1,0-0.2,0-0.3c0-2.1,0-4.2,0-6.3c0-2.1,1.5-3.6,3.6-3.6c0.6,0,1.2,0,1.8,0.1
		c1.6,0.3,2.6,1.7,2.6,3.3c0,0.3,0.1,0.4,0.4,0.5c1.4,0.5,2.3,2.1,2.1,3.5c-0.1,0.5-0.4,0.8-0.9,0.8c-1.7,0-3.3,0-5,0
		C7.4,8.5,7.1,8.1,7,7.6C7,6.1,7.8,4.7,9.3,4.1C9.5,4,9.5,3.9,9.5,3.8C9.5,2.7,8.9,2,7.8,2c-0.3,0-0.7,0-1,0c-0.9,0-1.6,0.7-1.6,1.6
		c0,2.4,0,4.7,0,7.1C5.2,10.8,5.2,11,5.2,11.1z"/>
</g>
</svg>
