<?xml version="1.0" encoding="utf-8"?>
<!-- Generator: Adobe Illustrator 24.3.0, SVG Export Plug-In . SVG Version: 6.00 Build 0)  -->
<svg version="1.0" id="Layer_1" xmlns="http://www.w3.org/2000/svg" xmlns:xlink="http://www.w3.org/1999/xlink" x="0px" y="0px"
	 viewBox="0 0 32 32" style="enable-background:new 0 0 32 32;" xml:space="preserve">
<g>
	<path d="M16,13.8c3.4,0,6.7,0,10.1,0c2.8,0,5,1.8,5.6,4.6c0.1,0.3,0.1,0.6,0.1,1c0,2.6,0,5.3,0,7.9c0,0.5-0.3,0.9-0.7,1.1
		c-0.4,0.2-0.9,0.1-1.2-0.3c-0.2-0.2-0.3-0.5-0.3-0.8c0-1-0.1-1.1-1.1-1.1c-8.4,0-16.7,0-25.1,0c-0.7,0-0.9,0.1-0.9,0.9
		c0,0.2,0,0.3,0,0.5c-0.1,0.6-0.7,0.9-1.2,0.9c-0.6-0.1-1-0.5-1-1.1c0-2.1,0-4.1,0-6.2c0-0.9,0-1.9,0.1-2.8c0.5-2.6,2.8-4.4,5.4-4.5
		C9.2,13.7,12.6,13.8,16,13.8z"/>
	<path d="M16,3.6c2.7,0,5.5,0,8.2,0c2.5,0,4.1,1.7,4.1,4.1c0,1.5,0,3.1,0,4.6c0,0.5-0.1,0.5-0.5,0.4c-0.6-0.1-1.2-0.2-1.8-0.2
		c-0.3,0-0.4-0.1-0.5-0.4c-0.3-1.2-1.1-1.9-2.3-1.9c-1.2,0-2.5,0-3.7,0c-1.2,0-2.1,0.7-2.3,1.9c-0.1,0.3-0.2,0.4-0.5,0.4
		c-0.5,0-1,0-1.4,0c-0.2,0-0.4-0.1-0.4-0.3c-0.3-1.3-1.1-1.9-2.5-1.9c-1.2,0-2.4,0-3.5,0c-1.3,0-2.1,0.7-2.4,1.9
		c-0.1,0.3-0.2,0.4-0.5,0.4c-0.6,0-1.3,0.1-1.9,0.2c-0.4,0.1-0.5,0-0.5-0.4c0-1.6,0-3.3,0-4.9c0-2.2,1.7-3.9,3.9-3.9
		C10.4,3.6,13.2,3.6,16,3.6z"/>
</g>
</svg>
