<?xml version="1.0" encoding="utf-8"?>
<!-- Generator: Adobe Illustrator 24.3.0, SVG Export Plug-In . SVG Version: 6.00 Build 0)  -->
<svg version="1.0" id="Layer_1" xmlns="http://www.w3.org/2000/svg" xmlns:xlink="http://www.w3.org/1999/xlink" x="0px" y="0px"
	 viewBox="0 0 32 32" style="enable-background:new 0 0 32 32;" xml:space="preserve">
<g>
	<path d="M22.8,31.7c-1.2,0-3.4-0.6-5.3-1.5C10.8,27,5.6,22.1,2.3,15.4c-1-2-1.6-4.1-1.9-6.4C0.1,7.2,0.6,5.4,1.4,3.7
		C2,2.6,2.7,1.7,3.7,1c1.3-0.9,2.8-0.9,4,0c0.5,0.4,1,0.8,1.4,1.3c0.9,1.1,1.8,2.3,2.6,3.5c1.2,1.6,1.1,3.3-0.1,4.8
		c-0.4,0.4-0.7,0.9-1.1,1.3c-0.6,0.7-0.6,1.4-0.2,2.2c1.9,3.3,4.5,5.9,7.8,7.8c0.6,0.3,1.1,0.3,1.7,0c0.5-0.3,1-0.7,1.4-1.1
		c0.6-0.5,1.2-1,2.1-1.2c1-0.2,1.9,0,2.7,0.6c1.4,1,2.9,2.1,4.2,3.2c1.8,1.4,1.9,4.1,0.3,5.8C28.8,30.8,26.5,31.7,22.8,31.7z"/>
</g>
</svg>
