<?xml version="1.0" encoding="utf-8"?>
<!-- Generator: Adobe Illustrator 24.3.0, SVG Export Plug-In . SVG Version: 6.00 Build 0)  -->
<svg version="1.1" id="Layer_1" xmlns="http://www.w3.org/2000/svg" xmlns:xlink="http://www.w3.org/1999/xlink" x="0px" y="0px"
	 viewBox="0 0 32 32" style="enable-background:new 0 0 32 32;" xml:space="preserve">
<g>
	<path d="M30.8,27.8C26.9,23.9,22.9,19.9,19,16c3.9-3.9,7.9-7.9,11.8-11.8c0.1-0.1,0.3-0.3,0.4-0.4c0.7-0.7,0.7-1.9,0.2-2.6
		c-0.6-0.8-1.7-1.2-2.6-0.7c-0.3,0.2-0.6,0.4-0.9,0.7C23.9,5.1,20,9,16,13C12.1,9.1,8.1,5.1,4.2,1.2C4.1,1,3.9,0.9,3.8,0.8
		C3,0.1,1.9,0.1,1.2,0.7C0.3,1.3,0,2.4,0.5,3.3c0.2,0.3,0.4,0.6,0.7,0.9C5.1,8.1,9,12.1,13,16c-3.6,3.6-7.1,7.1-10.7,10.7
		c-0.5,0.5-1,1-1.5,1.5c-0.7,0.8-0.7,1.9-0.1,2.7c0.7,0.9,1.9,1.1,2.8,0.5C3.8,31.3,4,31,4.2,30.8C8.1,26.9,12.1,22.9,16,19
		c3.9,3.9,7.8,7.8,11.7,11.7c0.2,0.2,0.3,0.3,0.5,0.5c0.7,0.7,1.9,0.7,2.6,0.1c0.8-0.6,1.1-1.7,0.7-2.6
		C31.4,28.4,31.1,28.1,30.8,27.8z"/>
</g>
</svg>
