<?xml version="1.0" encoding="utf-8"?>
<!-- Generator: Adobe Illustrator 24.3.0, SVG Export Plug-In . SVG Version: 6.00 Build 0)  -->
<svg version="1.1" id="Layer_1" xmlns="http://www.w3.org/2000/svg" xmlns:xlink="http://www.w3.org/1999/xlink" x="0px" y="0px"
	 viewBox="0 0 32 32" style="enable-background:new 0 0 32 32;" xml:space="preserve">
<path d="M26.3,24.3c-2.7-2.7-5.5-5.5-8.3-8.3c2.8-2.8,5.5-5.5,8.3-8.3c0.1-0.1,0.2-0.2,0.3-0.3c0.5-0.6,0.5-1.3,0.1-1.9
	s-1.2-0.8-1.8-0.5c-0.3,0.1-0.4,0.3-0.6,0.5c-2.8,2.8-5.6,5.6-8.3,8.3c-2.3-2.3-4.5-4.5-6.8-6.8C8.6,6.6,8.1,6,7.5,5.4
	C6.9,4.9,6.1,4.9,5.6,5.3C5,5.8,4.9,6.6,5.2,7.2c0.1,0.3,0.3,0.4,0.5,0.6c2.7,2.7,5.5,5.5,8.2,8.2c-2.5,2.5-5,5-7.4,7.4
	c-0.3,0.3-0.7,0.7-1.1,1.1c-0.5,0.5-0.5,1.3,0,1.9c0.5,0.6,1.3,0.7,1.9,0.4c0.1-0.1,0.3-0.3,0.5-0.5c2.7-2.7,5.5-5.5,8.3-8.3
	c2.8,2.8,5.5,5.5,8.3,8.3c0.1,0.1,0.2,0.2,0.3,0.3c0.5,0.5,1.3,0.5,1.9,0.1c0.6-0.5,0.7-1.3,0.4-1.9C26.7,24.6,26.5,24.5,26.3,24.3z
	"/>
</svg>
