<?xml version="1.0" encoding="utf-8"?>
<!-- Generator: Adobe Illustrator 24.3.0, SVG Export Plug-In . SVG Version: 6.00 Build 0)  -->
<svg version="1.1" id="Layer_1" xmlns="http://www.w3.org/2000/svg" xmlns:xlink="http://www.w3.org/1999/xlink" x="0px" y="0px"
	 viewBox="0 0 32 32" style="enable-background:new 0 0 32 32;" xml:space="preserve">
<path d="M31.75,30.08c-0.03,0.08-0.07,0.17-0.09,0.25c-0.46,1.41-2.17,1.89-3.29,0.92c-0.09-0.08-0.18-0.17-0.27-0.26
	c-3.94-3.94-7.87-7.87-11.8-11.81c-0.09-0.09-0.15-0.19-0.25-0.31c-0.13,0.13-0.22,0.21-0.3,0.29c-3.96,3.96-7.93,7.93-11.89,11.89
	c-0.65,0.65-1.41,0.87-2.27,0.56c-1.33-0.48-1.75-2.14-0.84-3.22c0.09-0.11,0.2-0.21,0.3-0.31c3.93-3.94,7.87-7.87,11.81-11.8
	c0.09-0.09,0.19-0.15,0.36-0.28c-0.17-0.13-0.28-0.2-0.38-0.29C8.87,11.76,4.91,7.81,0.95,3.85C-0.03,2.87,0.02,1.43,1.1,0.68
	C1.4,0.46,1.8,0.38,2.16,0.24c0.08,0,0.16,0,0.25,0C3.15,0.33,3.67,0.79,4.18,1.3c3.85,3.86,7.71,7.72,11.57,11.57
	c0.08,0.08,0.16,0.15,0.31,0.3c0.08-0.11,0.13-0.23,0.22-0.32C20.13,9,23.98,5.16,27.82,1.3c0.51-0.51,1.03-0.97,1.78-1.06
	c0.08,0,0.16,0,0.25,0c0.37,0.15,0.77,0.26,1.11,0.47c0.46,0.28,0.64,0.77,0.8,1.26c0,0.23,0,0.45,0,0.68
	c-0.15,0.62-0.55,1.07-0.99,1.51c-3.88,3.86-7.74,7.74-11.61,11.6c-0.08,0.08-0.21,0.13-0.35,0.22c0.19,0.16,0.28,0.23,0.36,0.31
	c3.88,3.88,7.75,7.75,11.63,11.62c0.44,0.43,0.82,0.88,0.97,1.5C31.75,29.63,31.75,29.85,31.75,30.08z"/>
</svg>
