<?xml version="1.0" encoding="utf-8"?>
<!-- Generator: Adobe Illustrator 24.3.0, SVG Export Plug-In . SVG Version: 6.00 Build 0)  -->
<svg version="1.0" id="Layer_1" xmlns="http://www.w3.org/2000/svg" xmlns:xlink="http://www.w3.org/1999/xlink" x="0px" y="0px"
	 viewBox="0 0 32 32" style="enable-background:new 0 0 32 32;" xml:space="preserve">
<g>
	<path d="M17.1,2.4c-0.8,0-1.5,0-2.3,0c-0.1,0.8-0.2,1.5-0.3,2.2c-0.1,0.9-0.6,1.5-1.5,1.8c-0.6,0.2-1.3,0.5-1.9,0.8
		C10.4,7.6,9.7,7.5,9,7C8.4,6.5,7.8,6.1,7.2,5.6c-0.5,0.6-1,1.1-1.6,1.7c1.1,1.3,2.7,2.7,1.2,4.8c-0.5,2.5-2.4,2.6-4.4,2.6
		c0,0.8,0,1.6,0,2.4c0.7,0.1,1.5,0.2,2.2,0.3c0.9,0.1,1.5,0.6,1.8,1.5c0.2,0.6,0.5,1.3,0.8,1.9C7.6,21.6,7.5,22.3,7,23
		c-0.5,0.6-0.9,1.2-1.4,1.8c0.6,0.5,1.1,1,1.7,1.6c1.3-1.1,2.7-2.7,4.8-1.2c2.5,0.5,2.6,2.4,2.6,4.4c0.8,0,1.6,0,2.4,0
		c0.1-0.7,0.2-1.5,0.3-2.2c0.1-0.9,0.6-1.5,1.5-1.8c0.6-0.2,1.2-0.5,1.8-0.8c0.9-0.4,1.7-0.3,2.4,0.3c0.6,0.4,1.1,0.9,1.7,1.4
		c0.5-0.6,1-1.1,1.6-1.8c-1.1-1.3-2.7-2.7-1.2-4.8c0.5-2.5,2.4-2.6,4.4-2.6c0-0.8,0-1.6,0-2.4c-0.7-0.1-1.5-0.2-2.2-0.3
		c-0.7-0.1-1.1-0.6-1-1.2c0.1-0.6,0.6-1,1.3-0.9c0.7,0.1,1.3,0.1,2,0.2c1.3,0.1,2,1,2,2.2c0,0.7,0,1.4,0,2.1c0,1.2-0.8,2.1-2,2.2
		c-0.1,0-0.1,0-0.2,0c-2.1,0.2-2.1,0.2-2.8,2.2c-0.1,0.2,0,0.4,0.1,0.6c0.4,0.5,0.8,1,1.1,1.4c0.7,1,0.7,2-0.2,2.9
		c-0.5,0.5-1,1-1.5,1.5c-0.9,0.8-1.9,0.9-2.9,0.2c-0.5-0.3-0.9-0.7-1.3-1.1c-0.1-0.1-0.2-0.1-0.3-0.2c-0.4-0.2-2.4,0.7-2.4,1.2
		c-0.1,0.6-0.1,1.1-0.2,1.7c-0.1,1.3-1,2.1-2.3,2.1c-0.7,0-1.4,0-2.1,0c-1.2,0-2-0.8-2.2-2c-0.1-0.6-0.1-1.1-0.2-1.7
		c-0.1-0.2-0.3-0.5-0.5-0.6c-0.1-0.1-0.3-0.1-0.4-0.2c-1-0.7-1.8-0.5-2.5,0.4c-0.2,0.2-0.4,0.4-0.7,0.5c-0.9,0.6-1.9,0.6-2.7-0.2
		c-0.6-0.5-1.1-1.1-1.7-1.7c-0.8-0.8-0.8-1.9-0.2-2.8c0.4-0.5,0.8-1,1.2-1.5c0.1-0.2,0.1-0.5,0.1-0.7C5.2,21.2,5,21.1,5,21
		c-0.2-1.3-1.1-1.6-2.3-1.7c-1.9-0.1-2.4-0.8-2.4-2.7c0-0.6,0-1.1,0-1.7c0-1.1,0.7-1.9,1.8-2.1c0.1,0,0.2,0,0.3,0
		c2.1-0.2,2.1-0.2,2.8-2.1c0.1-0.2,0-0.4-0.1-0.6C4.7,9.5,4.3,9,3.9,8.5c-0.7-0.9-0.7-2,0.2-2.8c0.5-0.5,1-1.1,1.6-1.6
		c0.9-0.8,1.9-0.9,2.9-0.2C8.6,4,8.6,4,8.7,4.1c0.5,0.4,1,1.1,1.6,1.1c0.6,0.1,1.2-0.4,1.8-0.6c0.2-0.1,0.4-0.4,0.5-0.6
		c0.1-0.6,0.1-1.1,0.2-1.7c0.1-1.3,1-2,2.2-2c0.7,0,1.4,0,2.1,0c1.2,0,2,0.7,2.2,1.9c0.1,0.7,0,1.6,0.3,2.1c0.4,0.5,1.2,0.6,1.9,1
		c0.7,0.4,0.9,0.9,0.6,1.5c-0.3,0.6-0.9,0.7-1.6,0.4c-0.5-0.2-1-0.4-1.6-0.6c-0.9-0.3-1.4-0.9-1.5-1.9C17.3,3.9,17.2,3.2,17.1,2.4z"
		/>
	<path d="M15.4,19.6c1.1-1.5,2.2-2.9,3.3-4.4C22.4,10.5,26,5.7,29.6,1c0.1-0.2,0.3-0.4,0.4-0.5c0.4-0.3,0.9-0.3,1.3,0
		c0.4,0.3,0.5,0.8,0.3,1.2c-0.1,0.2-0.2,0.4-0.4,0.5c-4.9,6.4-9.8,12.9-14.7,19.3c-0.7,0.9-1.3,0.9-2.1,0.1c-1.7-1.9-3.3-3.8-5-5.7
		c-0.1-0.1-0.2-0.2-0.3-0.3c-0.4-0.5-0.4-1.1,0-1.5c0.5-0.4,1.1-0.4,1.6,0.2c1.3,1.5,2.6,3,3.9,4.5C15,19.1,15.2,19.3,15.4,19.6z"/>
</g>
</svg>
