<?xml version="1.0" encoding="utf-8"?>
<!-- Generator: Adobe Illustrator 24.3.0, SVG Export Plug-In . SVG Version: 6.00 Build 0)  -->
<svg version="1.1" id="Layer_1" xmlns="http://www.w3.org/2000/svg" xmlns:xlink="http://www.w3.org/1999/xlink" x="0px" y="0px"
	 viewBox="0 0 32 32" style="enable-background:new 0 0 32 32;" xml:space="preserve">
<g>
	<path d="M16.1,19.6c0.2-0.2,0.3-0.4,0.5-0.6c3.7-3.7,7.5-7.5,11.2-11.2c0.6-0.6,1.4-0.9,2.3-0.6C31,7.4,31.5,8,31.7,8.9
		c0.2,0.8-0.1,1.5-0.7,2.1c-1.4,1.4-2.8,2.8-4.3,4.3c-2.9,2.9-5.9,5.9-8.8,8.8c-1.3,1.3-2.5,1.3-3.7,0C9.8,19.7,5.4,15.4,1.1,11
		c-1.2-1.2-1-3,0.3-3.7c0.9-0.5,2-0.3,2.8,0.5C6,9.5,7.7,11.2,9.5,13c2.1,2.1,4.1,4.1,6.2,6.2C15.8,19.3,15.9,19.4,16.1,19.6z"/>
</g>
</svg>
