<?xml version="1.0" encoding="utf-8"?>
<!-- Generator: Adobe Illustrator 24.3.0, SVG Export Plug-In . SVG Version: 6.00 Build 0)  -->
<svg version="1.1" id="Layer_1" xmlns="http://www.w3.org/2000/svg" xmlns:xlink="http://www.w3.org/1999/xlink" x="0px" y="0px"
	 viewBox="0 0 32 32" style="enable-background:new 0 0 32 32;" xml:space="preserve">
<g>
	<path d="M0.2,25.3c0-4.8,0-9.6,0-14.5c0,0,0.1,0,0.1,0.1c4.3,2.8,8.5,5.7,12.8,8.5c1.9,1.2,3.8,1.2,5.6,0c4.2-2.8,8.4-5.6,12.6-8.4
		c0.1-0.1,0.2-0.1,0.3-0.2c0,0.1,0,0.2,0,0.3c0,4.6,0,9.2,0,13.8c0,0.3,0,0.5-0.1,0.8c-0.3,1.4-1.5,2.2-3,2.2c-4.2,0-8.4,0-12.6,0
		c-4.3,0-8.5,0-12.8,0c-0.8,0-1.6-0.2-2.2-0.8C0.6,26.5,0.4,25.9,0.2,25.3z"/>
	<path d="M0.2,6.7c0.1-0.2,0.1-0.4,0.2-0.5c0.4-1.2,1.5-2,2.8-2c0.6,0,1.2,0,1.8,0c7.9,0,15.8,0,23.6,0c0.9,0,1.7,0.3,2.3,1
		c1.2,1.3,1,3.3-0.5,4.2c-1.9,1.3-3.8,2.6-5.8,3.9c-2.3,1.5-4.6,3.1-6.9,4.6c-1.3,0.9-2.4,0.9-3.7,0c-4-2.7-8.1-5.4-12.1-8.1
		C1.2,9.2,0.5,8.6,0.2,7.5C0.2,7.2,0.2,7,0.2,6.7z"/>
</g>
</svg>
