<?xml version="1.0" encoding="utf-8"?>
<!-- Generator: Adobe Illustrator 24.3.0, SVG Export Plug-In . SVG Version: 6.00 Build 0)  -->
<svg version="1.0" id="Layer_1" xmlns="http://www.w3.org/2000/svg" xmlns:xlink="http://www.w3.org/1999/xlink" x="0px" y="0px"
	 viewBox="0 0 32 32" style="enable-background:new 0 0 32 32;" xml:space="preserve">
<g>
	<path d="M21.8,0.4c0.5,0,1.1,0.1,1.6,0.1c0.4,0,0.7,0.1,1.1,0.1c0,1.7,0,3.3,0,5c-0.2,0-0.3,0-0.4,0c-1.1,0-2.1,0-3.2,0.1
		c-1.3,0.1-2,0.8-2.1,2.1c-0.1,1.4,0,2.7,0,4.2c1.8,0,3.7,0,5.5,0c-0.2,1.9-0.5,3.7-0.7,5.6c-1.6,0-3.2,0-4.8,0c0,4.8,0,9.6,0,14.4
		c-1.9,0-3.9,0-5.8,0c0-4.8,0-9.5,0-14.3c-1.6,0-3.2,0-4.8,0c0-1.9,0-3.7,0-5.6c1.6,0,3.2,0,4.8,0c0-0.2,0-0.3,0-0.4
		c0-1.5,0-2.9,0-4.4c0.1-1.8,0.6-3.4,1.8-4.7c0.9-1,2.1-1.6,3.5-1.9c0.4-0.1,0.7-0.1,1.1-0.2C20.2,0.4,21,0.4,21.8,0.4z"/>
</g>
</svg>
