<?xml version="1.0" encoding="utf-8"?>
<!-- Generator: Adobe Illustrator 24.3.0, SVG Export Plug-In . SVG Version: 6.00 Build 0)  -->
<svg version="1.1" id="Layer_1" xmlns="http://www.w3.org/2000/svg" xmlns:xlink="http://www.w3.org/1999/xlink" x="0px" y="0px"
	 viewBox="0 0 32 32" style="enable-background:new 0 0 32 32;" xml:space="preserve">
<g>
	<path d="M31.75,6.4c-0.24,0.56-0.67,0.75-1.27,0.75C20.81,7.14,11.14,7.14,1.48,7.14c-0.18,0-0.37-0.01-0.55-0.06
		C0.47,6.94,0.2,6.49,0.26,6.03C0.32,5.57,0.7,5.21,1.17,5.18c0.11-0.01,0.23,0,0.34,0c9.66,0,19.32,0,28.97-0.01
		c0.6,0,1.03,0.19,1.27,0.75C31.75,6.07,31.75,6.24,31.75,6.4z"/>
	<path d="M31.75,16.25c-0.24,0.56-0.67,0.75-1.27,0.75c-9.67-0.01-19.34-0.01-29.01-0.01c-0.18,0-0.37-0.01-0.55-0.06
		c-0.45-0.14-0.73-0.59-0.67-1.05c0.06-0.46,0.44-0.82,0.91-0.86c0.11-0.01,0.23,0,0.34,0c9.66,0,19.32,0,28.97-0.01
		c0.6,0,1.03,0.19,1.27,0.75C31.75,15.92,31.75,16.08,31.75,16.25z"/>
	<path d="M31.75,26.09c-0.24,0.56-0.67,0.75-1.27,0.75c-9.67-0.01-19.34-0.01-29.01-0.01c-0.18,0-0.37-0.01-0.55-0.06
		c-0.45-0.14-0.73-0.59-0.67-1.05c0.06-0.46,0.44-0.82,0.91-0.86c0.11-0.01,0.23,0,0.34,0c9.66,0,19.32,0,28.97-0.01
		c0.6,0,1.03,0.19,1.27,0.75C31.75,25.76,31.75,25.93,31.75,26.09z"/>
</g>
</svg>
