<?xml version="1.0" encoding="utf-8"?>
<!-- Generator: Adobe Illustrator 24.3.0, SVG Export Plug-In . SVG Version: 6.00 Build 0)  -->
<svg version="1.1" id="Layer_1" xmlns="http://www.w3.org/2000/svg" xmlns:xlink="http://www.w3.org/1999/xlink" x="0px" y="0px"
	 viewBox="0 0 32 32" style="enable-background:new 0 0 32 32;" xml:space="preserve">
<g>
	<path d="M16,5c4.6,0,9.3,0,13.9,0c0.3,0,0.5,0,0.8,0.1c0.7,0.2,1.1,1,1,1.7c-0.1,0.7-0.7,1.2-1.5,1.3c-0.1,0-0.3,0-0.4,0
		c-9.2,0-18.5,0-27.7,0c-0.2,0-0.5,0-0.7,0C0.7,7.9,0.2,7.2,0.3,6.4C0.3,5.6,1,5,1.7,5c0.5,0,1.1,0,1.6,0C7.5,5,11.8,5,16,5z"/>
	<path d="M16,17.6c-4.6,0-9.3,0-13.9,0c-0.3,0-0.5,0-0.8-0.1c-0.7-0.2-1.1-1-1-1.7C0.4,15,1,14.5,1.7,14.4c0.1,0,0.3,0,0.4,0
		c9.3,0,18.5,0,27.8,0c0.3,0,0.6,0,0.8,0.1c0.7,0.2,1.1,1,1,1.7c-0.1,0.7-0.7,1.3-1.4,1.3c-0.2,0-0.3,0-0.5,0
		C25.2,17.6,20.6,17.6,16,17.6z"/>
	<path d="M16,23.9c4.6,0,9.3,0,13.9,0c0.3,0,0.5,0,0.8,0.1c0.7,0.2,1.2,0.9,1.1,1.7C31.6,26.4,31,27,30.3,27c-0.1,0-0.3,0-0.4,0
		c-9.2,0-18.5,0-27.7,0c-0.3,0-0.5,0-0.8-0.1c-0.7-0.2-1.2-0.9-1.1-1.7c0.1-0.7,0.7-1.3,1.5-1.3c0.9,0,1.7,0,2.6,0
		C8.2,23.9,12.1,23.9,16,23.9z"/>
</g>
</svg>
