<?xml version="1.0" encoding="utf-8"?>
<!-- Generator: Adobe Illustrator 24.3.0, SVG Export Plug-In . SVG Version: 6.00 Build 0)  -->
<svg version="1.1" id="Layer_1" xmlns="http://www.w3.org/2000/svg" xmlns:xlink="http://www.w3.org/1999/xlink" x="0px" y="0px"
	 viewBox="0 0 32 32" style="enable-background:new 0 0 32 32;" xml:space="preserve">
<g>
	<path d="M16,31.7c-2.6,0-5.2,0-7.8,0c-3.9,0-7-2.6-7.8-6.4c-0.1-0.5-0.1-1-0.1-1.5c0-5.2,0-10.5,0-15.7c0-3.9,2.6-7,6.4-7.8
		c0.5-0.1,1-0.1,1.6-0.1c5.2,0,10.4,0,15.5,0c3.9,0,7.1,2.6,7.8,6.4c0.1,0.5,0.1,1.1,0.1,1.6c0,5.2,0,10.3,0,15.5
		c0,3.8-2.4,6.9-6,7.8c-0.7,0.2-1.4,0.2-2,0.2C21.1,31.8,18.6,31.7,16,31.7z M8.1,15.8c-0.2,4.3,3.2,7.9,7.7,8.1
		c4.3,0.2,7.9-3.2,8.1-7.6c0.2-4.3-3.3-7.9-7.7-8.1C11.9,8,8.3,11.4,8.1,15.8z M26,7.5C26,6.7,25.3,6,24.4,6c-0.9,0-1.6,0.7-1.6,1.6
		c0,0.9,0.7,1.6,1.6,1.6C25.3,9.1,26,8.4,26,7.5z"/>
	<path d="M20.7,16c0,2.6-2.1,4.7-4.7,4.7c-2.6,0-4.7-2.1-4.7-4.8c0-2.6,2.1-4.7,4.7-4.7C18.6,11.3,20.7,13.4,20.7,16z"/>
</g>
</svg>
