<?xml version="1.0" encoding="utf-8"?>
<!-- Generator: Adobe Illustrator 24.3.0, SVG Export Plug-In . SVG Version: 6.00 Build 0)  -->
<svg version="1.0" id="Layer_1" xmlns="http://www.w3.org/2000/svg" xmlns:xlink="http://www.w3.org/1999/xlink" x="0px" y="0px"
	 viewBox="0 0 32 32" style="enable-background:new 0 0 32 32;" xml:space="preserve">
<path d="M0.3,14.4c0.1,0,0.2,0,0.4,0c8.3,0,16.5,0,24.8,0c0.1,0,0.2,0,0.4,0c-3-3-5.9-5.9-8.8-8.8c0.8-0.8,1.5-1.5,2.2-2.2
	c4.2,4.2,8.4,8.4,12.6,12.6c-4.2,4.2-8.4,8.4-12.5,12.5c-0.7-0.7-1.4-1.4-2.1-2.2c2.9-2.9,5.8-5.8,8.7-8.7c0,0,0-0.1,0-0.1
	c-0.1,0-0.2,0-0.3,0c-8.3,0-16.6,0-24.8,0c-0.1,0-0.2,0-0.3,0C0.3,16.5,0.3,15.5,0.3,14.4z"/>
</svg>
