<?xml version="1.0" encoding="utf-8"?>
<!-- Generator: Adobe Illustrator 24.3.0, SVG Export Plug-In . SVG Version: 6.00 Build 0)  -->
<svg version="1.0" id="Layer_1" xmlns="http://www.w3.org/2000/svg" xmlns:xlink="http://www.w3.org/1999/xlink" x="0px" y="0px"
	 viewBox="0 0 32 32" style="enable-background:new 0 0 32 32;" xml:space="preserve">
<g>
	<path d="M17.9,31.7c-2.2,0-4.3,0-6.5,0c0-7,0-14,0-21c2.1,0,4.1,0,6.2,0c0,0.9,0,1.9,0,2.8c0.1,0,0.1-0.1,0.1-0.1
		c1.4-2.2,3.4-3.2,6-3.3c1.4,0,2.9,0.1,4.2,0.8c1.7,0.8,2.7,2.2,3.2,4c0.4,1.4,0.6,2.9,0.6,4.3c0,4,0,8.1,0,12.1c0,0.1,0,0.1,0,0.2
		c-2.2,0-4.3,0-6.5,0c0-0.1,0-0.3,0-0.4c0-3.4,0-6.9,0-10.3c0-0.8-0.1-1.6-0.2-2.3c-0.4-2.1-1.8-2.9-3.8-2.6
		c-1.8,0.2-2.8,1.3-3.1,3.3c-0.1,0.7-0.2,1.5-0.2,2.2c0,3.3,0,6.6,0,9.8C17.9,31.4,17.9,31.5,17.9,31.7z"/>
	<path d="M0.8,10.7c2.2,0,4.3,0,6.5,0c0,7,0,14,0,21c-2.2,0-4.3,0-6.5,0C0.8,24.7,0.8,17.8,0.8,10.7z"/>
	<path d="M7.8,4c0,2.1-1.7,3.8-3.7,3.8C2,7.9,0.3,6.1,0.3,4C0.2,2,1.9,0.3,4,0.3C6.1,0.2,7.8,1.9,7.8,4z"/>
</g>
</svg>
