<?xml version="1.0" encoding="utf-8"?>
<!-- Generator: Adobe Illustrator 24.3.0, SVG Export Plug-In . SVG Version: 6.00 Build 0)  -->
<svg version="1.0" id="Layer_1" xmlns="http://www.w3.org/2000/svg" xmlns:xlink="http://www.w3.org/1999/xlink" x="0px" y="0px"
	 viewBox="0 0 32 32" style="enable-background:new 0 0 32 32;" xml:space="preserve">
<g>
	<path d="M15.8,31.8c-1.8-1.7-3.5-3.6-5-5.6c-1.8-2.3-3.5-4.7-4.8-7.4c-0.8-1.7-1.5-3.4-1.7-5.3c-0.4-2.7,0.2-5.3,1.6-7.6
		c1.9-3.1,4.7-4.9,8.3-5.5c4.7-0.8,9.6,1.5,12,5.7c1.9,3.3,2.1,6.7,0.9,10.2c-0.9,2.6-2.3,5-3.9,7.3c-2,2.8-4.2,5.4-6.7,7.9
		c-0.1,0.1-0.2,0.2-0.3,0.3C16.1,31.8,15.9,31.8,15.8,31.8z M10.6,12.1c0,3,2.4,5.4,5.4,5.4c2.9,0,5.4-2.4,5.4-5.4
		c0-3-2.4-5.4-5.4-5.4C13,6.6,10.6,9.1,10.6,12.1z"/>
</g>
</svg>
