<?xml version="1.0" encoding="utf-8"?>
<!-- Generator: Adobe Illustrator 24.3.0, SVG Export Plug-In . SVG Version: 6.00 Build 0)  -->
<svg version="1.1" id="Layer_1" xmlns="http://www.w3.org/2000/svg" xmlns:xlink="http://www.w3.org/1999/xlink" x="0px" y="0px"
	 viewBox="0 0 32 32" style="enable-background:new 0 0 32 32;" xml:space="preserve">
<g>
	<path d="M16.68,0.25c0.63,0.14,1.27,0.22,1.88,0.42c3.61,1.16,6.02,4.72,5.73,8.42c-0.31,3.93-3.14,7.05-6.96,7.67
		c-4.72,0.77-9.1-2.6-9.59-7.36c-0.46-4.52,2.84-8.6,7.34-9.08c0.08-0.01,0.16-0.04,0.24-0.05C15.77,0.25,16.23,0.25,16.68,0.25z
		 M16.01,2.1c-3.56-0.01-6.46,2.89-6.47,6.44c-0.01,3.56,2.88,6.47,6.43,6.48c3.57,0.01,6.49-2.89,6.49-6.45
		C22.46,5,19.57,2.1,16.01,2.1z"/>
	<path d="M15.98,31.75c-4.22,0-8.45,0-12.67,0c-0.83,0-1.16-0.34-1.15-1.15c0.08-5.76,4.31-10.72,10.01-11.71
		c0.57-0.1,1.16-0.16,1.74-0.17c1.35-0.02,2.71-0.05,4.06,0c4.77,0.17,8.25,2.43,10.53,6.58c0.92,1.67,1.31,3.5,1.34,5.4
		c0.01,0.67-0.36,1.05-1.04,1.05C24.53,31.75,20.25,31.75,15.98,31.75z M27.97,29.89c-0.08-0.47-0.14-0.91-0.23-1.34
		c-0.94-4.52-5.08-7.94-9.7-8c-1.37-0.02-2.75-0.02-4.12,0.01c-0.62,0.01-1.25,0.08-1.86,0.22c-3.92,0.94-6.46,3.38-7.66,7.2
		c-0.19,0.61-0.27,1.25-0.4,1.9C12.03,29.89,19.97,29.89,27.97,29.89z"/>
</g>
</svg>
