<?xml version="1.0" encoding="utf-8"?>
<!-- Generator: Adobe Illustrator 24.3.0, SVG Export Plug-In . SVG Version: 6.00 Build 0)  -->
<svg version="1.1" id="Layer_1" xmlns="http://www.w3.org/2000/svg" xmlns:xlink="http://www.w3.org/1999/xlink" x="0px" y="0px"
	 viewBox="0 0 32 32" style="enable-background:new 0 0 32 32;" xml:space="preserve">
<path d="M17.2,0.2c0.6,0.1,1.3,0.1,1.9,0.3C21.1,0.9,23,1.7,24.7,3c1.9,1.5,3.2,3.4,3.8,5.8c0.4,1.5,0.4,3,0.2,4.5
	c-0.3,1.9-0.9,3.7-2,5.4c-1.5,2.2-3.5,3.7-6.1,4.3c-1.4,0.3-2.8,0.4-4.1-0.1c-1-0.3-2-0.9-2.6-1.9c-0.2,0.8-0.4,1.6-0.6,2.3
	c-0.4,1.3-0.7,2.7-1.3,4c-0.7,1.5-1.6,2.9-2.5,4.3c-0.1,0.1-0.2,0.2-0.3,0.2c-0.1,0-0.2-0.2-0.2-0.3c-0.3-2.1-0.6-4.2-0.2-6.3
	c0.2-1.3,0.6-2.7,0.9-4c0.5-1.9,1-3.9,1.4-5.8c0-0.2,0-0.3,0-0.5c-0.6-1.7-0.7-3.4,0.1-5.1c0.5-1.1,1.3-1.9,2.6-2.1
	c1.7-0.3,2.9,0.6,3,2.3c0.1,0.9-0.2,1.7-0.4,2.5c-0.4,1.3-0.8,2.5-1.2,3.8c-0.7,2.3,1.2,3.9,3.2,3.7c2.2-0.2,3.6-1.4,4.7-3.1
	c0.9-1.5,1.2-3.1,1.3-4.8c0.1-1.2,0-2.5-0.5-3.6c-0.7-1.9-2-3.3-3.9-4.1c-2.9-1.2-5.8-1.2-8.5,0.2C8.9,5.9,7.4,8,7,10.8
	c-0.3,2,0.2,3.8,1.4,5.4c0.2,0.2,0.2,0.4,0.1,0.7c-0.2,0.6-0.3,1.3-0.5,1.9c-0.1,0.5-0.3,0.6-0.8,0.3c-1-0.5-1.8-1.2-2.4-2.2
	c-1.4-2.1-1.9-4.5-1.4-7c0.8-4.7,3.7-7.6,8.2-9.1c1.2-0.4,2.4-0.6,3.6-0.6c0.1,0,0.2,0,0.3-0.1C16,0.3,16.6,0.3,17.2,0.2z"/>
</svg>
