<?xml version="1.0" encoding="utf-8"?>
<!-- Generator: Adobe Illustrator 24.3.0, SVG Export Plug-In . SVG Version: 6.00 Build 0)  -->
<svg version="1.0" id="Layer_1" xmlns="http://www.w3.org/2000/svg" xmlns:xlink="http://www.w3.org/1999/xlink" x="0px" y="0px"
	 viewBox="0 0 32 32" style="enable-background:new 0 0 32 32;" xml:space="preserve">
<g>
	<path d="M25.1,9.1c5.1,1.5,6.9,5.9,6.6,9.2c-0.3,3.7-3,7.5-8.1,8.1c0,0.3,0,0.6,0,1c0.1,0,0.1,0.1,0.2,0.1c1.4,0.1,1.4,0.1,1.4,1.4
		c0,0.7,0,1.5,0,2.2c0,0.5-0.2,0.7-0.7,0.7c-0.1,0-0.2,0-0.4,0c-7.6,0-15.2,0-22.8,0c-1,0-1.1-0.1-1.1-1.1c0-9.8,0-19.6,0-29.4
		c0-0.9,0.1-1,1-1c7.6,0,15.3,0,22.9,0c0.9,0,1,0.1,1,1c0,2.4,0,4.8,0,7.3C25.1,8.7,25.1,8.9,25.1,9.1z M1.4,30.6c6.6,0,13,0,19.5,0
		c0-0.1,0-0.1,0-0.2c0-0.5,0-1,0-1.5c0-1.4,0-1.4,1.4-1.5c0.1,0,0.1,0,0.2-0.1c0-0.3,0-0.6,0-1c-2.3-0.2-4.2-1.1-5.8-2.7
		c-1.6-1.7-2.3-3.7-2.4-6c-0.6,0-1.1,0-1.5,0c-0.9,0-1.8,0-2.7,0c-0.4,0-0.6-0.2-0.6-0.6c0-0.2,0.3-0.4,0.6-0.5c0.3-0.1,0.7,0,1,0
		c1.1,0,2.2,0,3.3,0c0.2-0.8,0.4-1.5,0.6-2.2c-1.2,0-2.4,0-3.5,0c-0.4,0-0.8,0-0.8-0.5c0-0.5,0.4-0.5,0.8-0.5c1.2,0,2.5,0,3.7,0
		c0.2,0,0.4-0.1,0.5-0.2c0.5-0.6,1-1.3,1.6-2c-0.8,0-1.5,0-2.2,0c-1.6,0-3.2,0-4.9,0c-0.4,0-0.7-0.1-0.7-0.5c0-0.4,0.3-0.6,0.7-0.5
		c0.1,0,0.2,0,0.4,0c2.4,0,4.8,0,7.3,0c0.7,0,1.4-0.1,2-0.4c0.5-0.2,1.1-0.4,1.6-0.5C22.2,9,23.1,9,24,8.9c0-2.5,0-5,0-7.5
		c-7.6,0-15.1,0-22.7,0C1.4,11.2,1.4,20.9,1.4,30.6z M23,25.3c4.2,0,7.6-3.4,7.6-7.5c0-4.3-3.4-7.7-7.6-7.8c-4.3,0-7.7,3.4-7.7,7.7
		C15.4,21.8,18.8,25.3,23,25.3z M22.1,28.6c0,0.7,0,1.4,0,2c0.7,0,1.3,0,2,0c0-0.7,0-1.3,0-2C23.4,28.6,22.7,28.6,22.1,28.6z"/>
	<path d="M4.3,27.6c0-1.8,0-3.5,0-5.2c0-0.8,0.1-0.9,0.9-0.9c0.6,0,1.1,0,1.7,0c0.5,0,0.8,0.2,0.8,0.8c0,1.6,0,3.2,0,4.9
		c0,0.1,0,0.3,0,0.4c0.3,0,0.7,0,1.1,0c0-0.2,0-0.5,0-0.7c0-2.1,0-4.1,0-6.2c0-0.8,0.1-0.9,0.9-0.9c0.5,0,1,0,1.5,0
		c0.7,0,0.9,0.1,0.9,0.9c0,2.1,0,4.1,0,6.2c0,0.2,0,0.4,0,0.7c0.4,0,0.7,0,1.1,0c0-0.8,0-1.5,0-2.3c0-0.7,0.1-0.8,0.9-0.9
		c0.6,0,1.1,0,1.7,0c0.6,0,0.8,0.2,0.8,0.8c0,0.8,0,1.5,0,2.3c0.3,0,0.6,0,0.9,0.1c0.2,0.1,0.5,0.4,0.5,0.5
		c-0.1,0.2-0.3,0.4-0.5,0.5c-0.1,0.1-0.2,0-0.4,0c-4.5,0-8.9,0-13.4,0c-0.1,0-0.3,0-0.4,0c-0.2-0.1-0.4-0.3-0.4-0.5
		c0-0.2,0.2-0.5,0.4-0.5C3.6,27.5,3.9,27.6,4.3,27.6z M11,27.6c0-2.3,0-4.5,0-6.7c-0.4,0-0.8,0-1.1,0c0,2.3,0,4.5,0,6.7
		C10.3,27.6,10.7,27.6,11,27.6z M5.4,22.6c0,1.7,0,3.3,0,5c0.4,0,0.7,0,1.1,0c0-1.7,0-3.3,0-5C6.2,22.6,5.8,22.6,5.4,22.6z
		 M15.5,27.6c0-0.7,0-1.4,0-2c-0.4,0-0.7,0-1.1,0c0,0.7,0,1.4,0,2C14.8,27.6,15.1,27.6,15.5,27.6z"/>
	<path d="M13,4.4c-1.7,0-3.4,0-5.1,0c-0.2,0-0.4,0.1-0.5,0C7.2,4.3,7,4,6.8,3.9C7,3.7,7.2,3.4,7.4,3.4c0.5-0.1,1,0,1.5,0
		c3,0,6.1,0,9.1,0c0.1,0,0.3-0.1,0.4,0c0.2,0.1,0.6,0.3,0.6,0.5c0.1,0.4-0.2,0.6-0.6,0.6c-1.1,0-2.3,0-3.4,0
		C14.3,4.4,13.6,4.4,13,4.4z"/>
	<path d="M16.2,6.7c1.6,0,3.2,0,4.7,0c0.4,0,0.7,0,0.7,0.5c0,0.5-0.4,0.6-0.8,0.6c-3.2,0-6.4,0-9.6,0c-0.4,0-0.7,0-0.7-0.5
		c0-0.5,0.4-0.6,0.8-0.6C13,6.7,14.6,6.7,16.2,6.7z"/>
	<path d="M5.3,9.7C6,9,6.7,8.3,7.4,7.7c0.1-0.1,0.3-0.3,0.4-0.4c0.3-0.3,0.6-0.3,0.8,0c0.1,0.2,0.1,0.6,0,0.7
		c-0.9,1-1.8,1.9-2.8,2.9c-0.3,0.3-0.6,0.3-0.9,0c-0.4-0.4-0.8-0.7-1.1-1.2c-0.1-0.2,0-0.5,0-0.7c0.3,0,0.6-0.1,0.8,0
		C4.9,9.2,5.1,9.5,5.3,9.7z"/>
	<path d="M5.3,16.3c0.8-0.7,1.5-1.4,2.2-2.1c0.1-0.1,0.2-0.3,0.4-0.4c0.2-0.1,0.5,0,0.8,0c0,0.3,0.1,0.6,0,0.7c-0.9,1-1.9,2-2.8,2.9
		c-0.1,0.1-0.6,0.1-0.8,0c-0.4-0.3-0.7-0.7-1.1-1.1c-0.2-0.3-0.3-0.5,0-0.8c0.3-0.3,0.6-0.2,0.8,0.1C4.9,15.9,5.1,16.1,5.3,16.3z"/>
	<path d="M23,24.3c-3.7,0-6.7-3-6.7-6.6c0-3.6,3-6.6,6.7-6.6c3.6,0,6.6,3,6.6,6.6C29.7,21.3,26.7,24.3,23,24.3z M17.5,17.6
		c0,3.1,2.5,5.6,5.6,5.6c3,0,5.5-2.5,5.5-5.5c0-3.1-2.5-5.6-5.5-5.6C20,12.1,17.5,14.6,17.5,17.6z"/>
	<path d="M21.7,18.9c1.1-1.1,2.1-2.1,3.2-3.2c0.2-0.2,0.3-0.4,0.5-0.4c0.2-0.1,0.5,0,0.6,0.1c0.1,0.1,0.1,0.4,0.1,0.6
		c0,0.1-0.2,0.2-0.3,0.3c-1.1,1.1-2.3,2.3-3.4,3.4c-0.6,0.5-0.7,0.5-1.3,0c-0.4-0.4-0.7-0.7-1.1-1.1c-0.3-0.3-0.3-0.6,0-0.8
		c0.2-0.1,0.6-0.1,0.7,0.1C21.1,18.2,21.4,18.5,21.7,18.9z"/>
</g>
</svg>
