<?xml version="1.0" encoding="utf-8"?>
<!-- Generator: Adobe Illustrator 24.3.0, SVG Export Plug-In . SVG Version: 6.00 Build 0)  -->
<svg version="1.1" id="Layer_1" xmlns="http://www.w3.org/2000/svg" xmlns:xlink="http://www.w3.org/1999/xlink" x="0px" y="0px"
	 viewBox="0 0 32 32" style="enable-background:new 0 0 32 32;" xml:space="preserve">
<g>
	<path d="M14.34,0.25c0.57,0.08,1.14,0.14,1.7,0.25c2.73,0.52,5.06,1.79,7.01,3.76c1.77,1.8,2.94,3.93,3.44,6.41
		c0.63,3.11,0.19,6.08-1.37,8.85c-0.5,0.89-1.13,1.7-1.72,2.58c0.02,0.02,0.08,0.09,0.15,0.16c2.58,2.54,5.16,5.08,7.74,7.62
		c0.56,0.55,0.62,1.13,0.17,1.58c-0.45,0.45-1.05,0.39-1.6-0.14c-2.59-2.55-5.19-5.11-7.78-7.66c-0.07-0.07-0.15-0.14-0.22-0.21
		c-0.42,0.28-0.81,0.57-1.23,0.84c-2.32,1.46-4.86,2.15-7.59,2.05c-3.6-0.13-6.67-1.52-9.18-4.11c-1.88-1.95-3.02-4.28-3.45-6.96
		c-0.06-0.36-0.1-0.73-0.15-1.09c0-0.57,0-1.15,0-1.72c0.02-0.09,0.04-0.18,0.06-0.27c0.08-0.52,0.12-1.04,0.23-1.55
		c0.51-2.44,1.66-4.55,3.4-6.33c1.95-2,4.3-3.28,7.05-3.8c0.54-0.1,1.09-0.16,1.63-0.24C13.19,0.25,13.77,0.25,14.34,0.25z
		 M2.28,13.23c0.02,0.46,0.02,0.84,0.07,1.21c0.29,2.39,1.2,4.51,2.86,6.26c2.89,3.04,6.46,4.18,10.54,3.38
		c3.59-0.7,6.27-2.77,7.86-6.09c1.6-3.35,1.51-6.73-0.29-9.97c-1.84-3.32-4.74-5.21-8.51-5.67c-2.97-0.37-5.71,0.36-8.1,2.17
		C3.82,6.72,2.38,9.68,2.28,13.23z"/>
</g>
</svg>
