<?xml version="1.0" encoding="utf-8"?>
<!-- Generator: Adobe Illustrator 24.3.0, SVG Export Plug-In . SVG Version: 6.00 Build 0)  -->
<svg version="1.1" id="Layer_1" xmlns="http://www.w3.org/2000/svg" xmlns:xlink="http://www.w3.org/1999/xlink" x="0px" y="0px"
	 viewBox="0 0 32 32" style="enable-background:new 0 0 32 32;" xml:space="preserve">
<g>
	<path d="M0.25,15.82c0.15-0.37,0.43-0.49,0.81-0.48c0.6,0.01,1.2,0,1.83,0c0.23-3.36,1.49-6.24,3.85-8.6
		c2.36-2.36,5.23-3.62,8.59-3.85c0-0.26,0-0.52,0-0.79c0-0.36,0-0.72,0-1.08c0-0.51,0.23-0.77,0.67-0.77c0.44,0,0.68,0.26,0.68,0.76
		c0,0.61,0,1.23,0,1.87c3.34,0.22,6.22,1.48,8.58,3.84c2.36,2.36,3.63,5.24,3.86,8.61c0.5,0,0.99,0,1.48,0c0.15,0,0.31,0,0.46,0
		c0.44,0.02,0.69,0.26,0.7,0.65c0,0.4-0.25,0.65-0.69,0.66c-0.55,0.01-1.11,0-1.66,0c-0.08,0-0.16,0-0.28,0
		c-0.22,3.33-1.48,6.22-3.83,8.58c-2.36,2.37-5.24,3.64-8.62,3.87c0,0.22,0,0.44,0,0.66c0,0.39-0.01,0.78,0,1.17
		c0.01,0.37-0.11,0.66-0.48,0.81c-0.12,0-0.25,0-0.37,0c-0.36-0.15-0.49-0.43-0.48-0.81c0.01-0.33,0-0.66,0-0.98
		c0-0.28,0-0.56,0-0.85c-3.38-0.23-6.26-1.5-8.61-3.86c-2.36-2.36-3.62-5.24-3.84-8.59c-0.62,0-1.23-0.01-1.83,0
		c-0.37,0.01-0.66-0.11-0.81-0.48C0.25,16.06,0.25,15.94,0.25,15.82z M27.77,15.34c-0.24-6.09-5.34-10.93-11.1-11.1
		c0,0.63,0.01,1.27,0,1.9C16.66,6.56,16.39,6.83,16,6.83c-0.39,0-0.66-0.27-0.67-0.69c-0.01-0.54,0-1.09,0-1.63
		c0-0.1-0.01-0.19-0.01-0.29C9.06,4.56,4.44,9.66,4.23,15.32c0.1,0.01,0.2,0.01,0.3,0.01c0.48,0,0.96,0,1.45,0
		c0.56,0,0.84,0.23,0.84,0.67c-0.01,0.43-0.28,0.65-0.82,0.65c-0.47,0-0.94,0-1.41,0c-0.12,0-0.23,0-0.35,0
		c0.36,6.66,5.92,11,11.12,11.09c0-0.12,0-0.24,0-0.36c0-0.52-0.01-1.05,0.01-1.57c0.02-0.4,0.28-0.63,0.65-0.63
		c0.37,0,0.62,0.23,0.66,0.63c0.02,0.23,0.01,0.47,0.01,0.71c0,0.42,0,0.83,0,1.25c6.33-0.3,10.95-5.58,11.1-11.1
		c-0.1,0-0.2-0.01-0.3-0.01c-0.51,0-1.03,0.01-1.54,0c-0.47-0.01-0.73-0.24-0.73-0.65c-0.01-0.42,0.26-0.66,0.74-0.67
		c0.15,0,0.31,0,0.46,0C26.85,15.34,27.31,15.34,27.77,15.34z"/>
	<path d="M15.99,19.94c-2.22,0-3.93-1.71-3.93-3.94c0-2.24,1.72-3.94,3.96-3.94c2.22,0.01,3.92,1.72,3.91,3.95
		C19.93,18.24,18.22,19.94,15.99,19.94z M18.63,16c0-1.43-1.19-2.62-2.62-2.63c-1.44-0.01-2.65,1.21-2.63,2.64
		c0.02,1.44,1.21,2.62,2.64,2.61C17.45,18.62,18.63,17.43,18.63,16z"/>
</g>
</svg>
