<?xml version="1.0" encoding="utf-8"?>
<!-- Generator: Adobe Illustrator 24.3.0, SVG Export Plug-In . SVG Version: 6.00 Build 0)  -->
<svg version="1.1" id="Layer_1" xmlns="http://www.w3.org/2000/svg" xmlns:xlink="http://www.w3.org/1999/xlink" x="0px" y="0px"
	 viewBox="0 0 32 32" style="enable-background:new 0 0 32 32;" xml:space="preserve">
<g>
	<path d="M31.8,16.1c0,1.1-0.6,1.9-1.6,2.4c-3.6,1.8-7.2,3.6-10.8,5.4c-5,2.5-10,5-15.1,7.5c-1.7,0.9-3.6,0-4-1.8
		c-0.1-0.4-0.1-0.9,0.1-1.3c1-4,2-7.9,3-11.9c0.1-0.2,0.1-0.5,0-0.7c-1-4-2-7.9-3-11.9c-0.3-1.1,0-2.1,0.9-2.9
		c0.9-0.8,2-0.8,3.1-0.3C12.9,4.9,21.4,9.2,30,13.5c0.9,0.4,1.5,1,1.7,2c0,0.1,0,0.1,0,0.2C31.7,15.8,31.7,15.9,31.8,16.1z
		 M5.4,17.1c0,0.1-0.1,0.2-0.1,0.3c-0.9,3.8-1.9,7.5-2.8,11.3c-0.1,0.3-0.1,0.5,0.1,0.8c0.2,0.2,0.5,0.1,0.7,0
		c8.6-4.3,17.1-8.6,25.7-12.9c0.2-0.1,0.5-0.2,0.5-0.5c0-0.3-0.2-0.4-0.5-0.6C20.5,11.2,11.9,6.9,3.4,2.6c-0.2-0.1-0.5-0.2-0.7,0
		C2.4,2.8,2.4,3,2.5,3.3C3.2,6.2,4,9.1,4.7,12c0.2,1,0.5,1.9,0.7,2.9c0.2,0,0.3,0,0.4,0c3.7,0,7.4,0,11.1,0c0.1,0,0.3,0,0.4,0
		c0.5,0,0.9,0.4,1,1c0.1,0.5-0.2,1-0.7,1.2c-0.2,0.1-0.4,0.1-0.5,0.1c-3.7,0-7.5,0-11.2,0C5.7,17.1,5.6,17.1,5.4,17.1z"/>
</g>
</svg>
