<?xml version="1.0" encoding="utf-8"?>
<!-- Generator: Adobe Illustrator 24.3.0, SVG Export Plug-In . SVG Version: 6.00 Build 0)  -->
<svg version="1.0" id="Layer_1" xmlns="http://www.w3.org/2000/svg" xmlns:xlink="http://www.w3.org/1999/xlink" x="0px" y="0px"
	 viewBox="0 0 32 32" style="enable-background:new 0 0 32 32;" xml:space="preserve">
<g>
	<path d="M16,0.3c2.3,0,4.6,0,6.9,0c1.6,0,3.1,0.3,4.5,1c2.5,1.3,3.7,3.4,4.2,6.1c0.1,0.6,0.1,1.2,0.2,1.9c0,4.6,0,9.2,0,13.8
		c0,1.6-0.3,3.2-1.1,4.6c-1.3,2.3-3.3,3.5-5.9,4c-0.6,0.1-1.3,0.2-1.9,0.2c-4.6,0-9.2,0-13.8,0c-1.8,0-3.5-0.4-5-1.4
		c-1.9-1.2-3-3.1-3.5-5.3c-0.2-0.9-0.2-1.7-0.2-2.6c0-4.3,0-8.6,0-13c0-1.5,0.2-3,0.8-4.4c1.1-2.6,3.1-4.1,5.9-4.6
		c0.9-0.2,1.8-0.2,2.7-0.2C11.7,0.2,13.9,0.3,16,0.3C16,0.3,16,0.3,16,0.3z M7.7,22.5c0-1.1,0-2.2,0-3.3c0-0.7-0.5-1.2-1.2-1.2
		c-0.7,0-1.2,0.5-1.2,1.2c0,2.1,0,4.1,0,6.2c0,0.8,0.5,1.2,1.3,1.2c2,0,4.1,0,6.1,0c0.7,0,1.3-0.5,1.3-1.2c0-0.7-0.5-1.2-1.3-1.2
		c-1,0-2,0-3,0c-0.1,0-0.2,0-0.2,0c4.9-4.9,9.8-9.8,14.7-14.7c0,0.1,0,0.2,0,0.3c0,1,0,2,0,3c0,0.7,0.5,1.2,1.2,1.2
		c0.6,0,1.2-0.5,1.2-1.2c0-2.1,0-4.2,0-6.3c0-0.6-0.5-1.2-1.1-1.2c-2.1,0-4.3,0-6.4,0c-0.6,0-1.1,0.6-1.1,1.2c0,0.6,0.5,1.2,1.1,1.2
		c1,0,2,0,3,0c0.1,0,0.2,0,0.3,0C17.6,12.7,12.7,17.6,7.7,22.5z"/>
</g>
</svg>
