<?xml version="1.0" encoding="utf-8"?>
<!-- Generator: Adobe Illustrator 24.3.0, SVG Export Plug-In . SVG Version: 6.00 Build 0)  -->
<svg version="1.1" id="Layer_1" xmlns="http://www.w3.org/2000/svg" xmlns:xlink="http://www.w3.org/1999/xlink" x="0px" y="0px"
	 viewBox="0 0 32 32" style="enable-background:new 0 0 32 32;" xml:space="preserve">
<g>
	<path d="M8.12,31.75c-0.6-0.2-1.05-0.55-1.19-1.2c-0.03-0.16-0.04-0.33-0.04-0.49c0-0.82,0-1.64,0-2.49c-0.37,0-0.71,0-1.06,0
		c-0.53,0-1.07,0.01-1.6,0c-0.85-0.01-1.49-0.65-1.52-1.5c0-0.06,0-0.12,0-0.18c0-7.99,0-15.97,0-23.96c0-0.88,0.45-1.48,1.22-1.65
		c0.14-0.03,0.28-0.03,0.43-0.03c6.37,0,12.73,0,19.1,0c1.02,0,1.65,0.62,1.65,1.65c0,0.83,0,1.66,0,2.53c0.13,0,0.24,0,0.34,0
		c0.76,0,1.52,0,2.28,0c0.9,0.01,1.56,0.65,1.56,1.55c0,6.06,0.01,12.12-0.01,18.17c0,0.99-0.4,1.87-1.11,2.56
		c-1.39,1.35-2.81,2.67-4.23,3.99c-0.58,0.54-1.29,0.82-2.05,0.99c-0.06,0.01-0.11,0.04-0.16,0.06
		C17.19,31.75,12.66,31.75,8.12,31.75z M21.69,30.58c0-0.16,0-0.28,0-0.4c0-1.15-0.01-2.3,0-3.44c0.01-1.33,0.88-2.19,2.21-2.19
		c1.21,0,2.42,0,3.63,0c0.61,0,0.61,0,0.61-0.61c0-5.91,0-11.83,0-17.74c0-0.55-0.09-0.63-0.65-0.63c-6.27,0-12.55,0-18.82,0
		c-0.55,0-0.65,0.09-0.65,0.64c0,7.92,0,15.85,0,23.77c0,0.56,0.08,0.64,0.64,0.64c4.14,0,8.28,0,12.43,0
		C21.27,30.61,21.46,30.59,21.69,30.58z M23.97,4.43c0-0.14,0-0.25,0-0.36c0-0.68,0-1.35,0-2.03c0-0.58-0.07-0.65-0.66-0.65
		c-6.26,0-12.53,0-18.79,0c-0.61,0-0.66,0.05-0.66,0.67c0,7.89,0,15.79,0,23.68c0,0.05,0,0.1,0,0.15c0.01,0.43,0.12,0.54,0.56,0.54
		c0.74,0,1.48,0,2.21,0c0.08,0,0.16-0.01,0.26-0.02c0-0.15,0-0.28,0-0.41c0-6.61,0.01-13.22-0.01-19.84c0-1.05,0.71-1.76,1.74-1.76
		c4.98,0.03,9.97,0.01,14.95,0.01C23.69,4.43,23.81,4.43,23.97,4.43z M27.59,25.71c-0.12-0.02-0.15-0.03-0.18-0.04
		c-1.2,0-2.4-0.01-3.6,0c-0.58,0-0.98,0.41-0.98,1c-0.01,1.08,0,2.15,0,3.23c0,0.05,0.01,0.11,0.03,0.25
		C24.46,28.66,26,27.21,27.59,25.71z"/>
	<path d="M18.09,10.88c-1.75,0-3.5,0-5.26,0c-0.1,0-0.21,0-0.31-0.01c-0.3-0.05-0.51-0.28-0.52-0.56c0-0.29,0.22-0.53,0.54-0.57
		c0.09-0.01,0.18-0.01,0.28-0.01c3.5,0,7.01,0,10.51,0c0.54,0,0.82,0.2,0.82,0.57c0,0.38-0.28,0.58-0.81,0.58
		C21.6,10.88,19.84,10.88,18.09,10.88z"/>
	<path d="M18.08,18.46c-1.8,0-3.61,0-5.41,0c-0.44,0-0.73-0.29-0.65-0.66c0.06-0.27,0.22-0.43,0.5-0.46c0.1-0.01,0.2-0.01,0.31-0.01
		c3.5,0,7.01,0,10.51,0c0.55,0,0.82,0.19,0.81,0.57c0,0.38-0.27,0.56-0.82,0.56C21.59,18.46,19.83,18.46,18.08,18.46z"/>
	<path d="M18.1,14.67c-1.75,0-3.5,0-5.26,0c-0.11,0-0.23,0-0.34-0.01c-0.28-0.04-0.48-0.27-0.49-0.54c-0.01-0.28,0.21-0.53,0.5-0.57
		c0.07-0.01,0.14-0.01,0.21-0.01c3.58,0,7.15,0,10.73,0c0.39,0,0.59,0.13,0.67,0.4c0.1,0.33-0.1,0.66-0.44,0.71
		c-0.11,0.02-0.22,0.01-0.34,0.01C21.6,14.67,19.85,14.67,18.1,14.67z"/>
	<path d="M15.6,22.27c-0.93,0-1.86,0-2.8,0c-0.1,0-0.21,0-0.31-0.02c-0.28-0.05-0.48-0.29-0.48-0.56c0-0.27,0.2-0.5,0.48-0.56
		c0.09-0.02,0.18-0.02,0.27-0.02c1.91,0,3.81,0,5.72,0c0.11,0,0.23,0.01,0.33,0.04c0.26,0.07,0.39,0.25,0.4,0.52
		c0.01,0.28-0.13,0.47-0.39,0.55c-0.11,0.03-0.24,0.04-0.36,0.04C17.5,22.27,16.55,22.27,15.6,22.27z"/>
</g>
</svg>
