<?xml version="1.0" encoding="utf-8"?>
<!-- Generator: Adobe Illustrator 24.3.0, SVG Export Plug-In . SVG Version: 6.00 Build 0)  -->
<svg version="1.0" id="Layer_1" xmlns="http://www.w3.org/2000/svg" xmlns:xlink="http://www.w3.org/1999/xlink" x="0px" y="0px"
	 viewBox="0 0 32 32" style="enable-background:new 0 0 32 32;" xml:space="preserve">
<g>
	<path d="M5.5,16.5c1.8-0.1,3.5-0.3,5.2-0.4c0.7-0.1,1.3-0.2,2-0.3c1.1-0.2,1.9,0.2,2.7,0.9c0.4,0.4,0.7,0.4,1.2,0
		c0.9-0.9,1.9-1.1,3.2-0.8c2,0.4,4.1,0.7,6.1,0.6c0.2,0,0.4,0,0.6,0c0.2-1.4,0.2-1.4,1.7-1.4c0.7,0,1.3,0,2,0c0.4,0,0.6,0.1,0.6,0.6
		c0,3,0,6,0,9c0,0.4-0.2,0.6-0.6,0.6c-1,0-1.9,0-2.9,0c-0.6,0-0.8-0.2-0.8-0.8c0-0.2,0-0.4,0-0.6c-0.4,0-0.7,0-1.1,0.1
		c-0.3,0.1-0.6,0.3-0.6,0.7c-0.1,0.7-0.4,1.1-1,1.5c-0.2,0.1-0.3,0.4-0.3,0.6c-0.1,0.9-0.7,1.5-1.6,1.7c-0.2,0-0.4,0.2-0.4,0.3
		c-0.3,0.8-0.8,1.3-1.7,1.3c-0.1,0.3-0.2,0.6-0.4,0.8c-0.6,0.9-1.4,1.1-2.3,0.5c-0.4-0.3-0.8-0.6-1.4-1c-0.2,0.3-0.4,0.6-0.6,0.8
		c-0.9,0.9-1.9,0.8-2.6-0.3c-0.2-0.3-0.4-0.4-0.8-0.5c-0.8-0.1-1.3-0.6-1.6-1.3c-1.2,0-1.8-0.4-2.2-1.5c-0.1-0.2-0.3-0.3-0.5-0.4
		c-0.9-0.4-1.5-1.4-1.1-2.2C6.5,24.7,6.7,24.4,7,24c-0.6-0.1-1-0.2-1.4-0.3c-0.1,0.1-0.1,0.2-0.1,0.2c-0.1,1.2-0.1,1.2-1.4,1.2
		c-0.7,0-1.5,0-2.2,0c-0.5,0-0.7-0.2-0.7-0.7c0-3,0-5.9,0-8.9c0-0.5,0.2-0.7,0.7-0.7c0.9,0,1.8,0,2.7,0c0.8,0,0.8,0,0.9,0.8
		C5.5,16,5.5,16.2,5.5,16.5z M14.7,27.6c0.5,0.6,1,0.9,1.2,1.5c0.2,0.5,0.5,0.8,0.9,1.1c0.3,0.2,0.5,0.4,0.8,0.5
		c0.5,0.3,0.8,0.3,1.2-0.2c0.4-0.5,0.3-0.8-0.1-1.2c-0.9-0.6-1.7-1.3-2.6-1.9c-0.2-0.2-0.5-0.4-0.3-0.7c0.1-0.1,0.5,0,0.7,0.1
		c1,0.7,2,1.4,2.9,2.1c0.6,0.4,0.9,0.4,1.3-0.1c0.4-0.5,0.3-0.8-0.3-1.3c-1-0.7-2-1.4-2.9-2.1c-0.3-0.2-0.6-0.4-0.3-0.7
		c0.1-0.1,0.5,0,0.7,0.1c1.2,0.8,2.3,1.7,3.5,2.5c0.5,0.4,0.8,0.3,1.2-0.2c0.4-0.5,0.3-0.8-0.2-1.2c-1.1-0.8-2.1-1.6-3.2-2.3
		c-0.3-0.2-0.6-0.4-0.3-0.7c0.1-0.1,0.5,0,0.7,0.1c1.1,0.7,2.1,1.5,3.2,2.3c0.5,0.4,0.8,0.1,1.1-0.2c0.3-0.4,0.5-0.8,0-1.1
		c-1.6-1.2-3.2-2.4-4.7-3.6c-0.4-0.3-0.9-0.3-1.3,0c-0.5,0.4-1.1,0.8-1.6,1.2c-0.9,0.7-1.8,0.5-2.5-0.4c-0.7-1-0.6-1.8,0.3-2.5
		c0.5-0.4,0.9-0.7,1.4-1.1c-0.9-0.9-1.8-1.2-3-1C10.2,17,8,17.3,5.9,17.2c-0.1,0-0.2,0-0.4,0c0,2,0,3.9,0,5.9c1-0.3,1.9,0.7,3,0.2
		c0.1-0.1,0.4,0,0.5,0.1c0.4,0.3,0.8,0.7,1.2,1c0.4-0.5,1-0.7,1.6-0.3c0.4,0.3,0.7,0.8,1.1,1.2c0.1,0.1,0.2,0.4,0.4,0.4
		C14.2,26.1,14.7,26.8,14.7,27.6z M26.5,17.2c-0.1,0-0.1-0.1-0.2-0.1c-2.4,0.1-4.8-0.2-7.2-0.6c-0.6-0.1-1.2,0-1.7,0.4
		c-1.1,0.8-2.1,1.6-3.2,2.4c-0.5,0.4-0.5,0.8-0.1,1.4c0.4,0.6,0.9,0.7,1.4,0.4c0.5-0.4,1-0.8,1.5-1.2c1-0.7,1.6-0.7,2.6,0
		c1.5,1.1,2.9,2.2,4.4,3.3c0.1,0.1,0.3,0.2,0.5,0.2c0.6-0.2,1.3-0.4,2-0.6C26.5,21,26.5,19.1,26.5,17.2z M4.7,15.8
		c-0.9,0-1.8,0-2.7,0c0,2.9,0,5.7,0,8.6c0.9,0,1.8,0,2.7,0C4.7,21.5,4.7,18.7,4.7,15.8z M27.3,24.4c0.9,0,1.8,0,2.7,0
		c0-2.9,0-5.8,0-8.6c-0.9,0-1.8,0-2.7,0C27.3,18.7,27.3,21.5,27.3,24.4z M12.3,25.7c-0.3-0.3-0.5-0.7-0.8-0.8
		c-0.2-0.1-0.6,0-0.8,0.2c-0.6,0.6-1.2,1.2-1.8,1.8c-0.4,0.4-0.4,0.8,0.1,1.2c0.4,0.3,0.7,0.5,1.1,0.1c0.6-0.6,1.2-1.2,1.9-1.9
		C12,26.1,12.1,25.9,12.3,25.7z M14,27.4c-0.3-0.3-0.5-0.6-0.8-0.8c-0.2-0.1-0.6,0.1-0.8,0.2c-0.5,0.4-0.9,0.9-1.4,1.4
		c-0.5,0.4-0.2,0.8,0.1,1.1c0.3,0.3,0.7,0.5,1.1,0.1c0.5-0.5,1-1,1.5-1.5C13.8,27.8,13.9,27.6,14,27.4z M7.9,26.7
		c0.4-0.4,0.8-0.7,1.1-1c0.5-0.5,0.5-0.8,0-1.3c-0.5-0.4-0.7-0.4-1.2,0c-0.2,0.2-0.4,0.4-0.6,0.6c-0.1,0.2-0.3,0.6-0.2,0.8
		C7.2,26.1,7.6,26.3,7.9,26.7z M15.4,29.5c-0.3-0.3-0.5-0.6-0.8-0.8c-0.2-0.1-0.5,0.1-0.8,0.2c-0.2,0.1-0.4,0.3-0.5,0.5
		c-0.5,0.5-0.5,0.8-0.1,1.3c0.5,0.5,0.7,0.5,1.3,0c0.2-0.2,0.4-0.4,0.6-0.6C15.2,29.9,15.3,29.7,15.4,29.5z"/>
	<path d="M23.4,7.7c0,4.1-3.3,7.4-7.4,7.4c-4.1,0-7.4-3.3-7.4-7.4c0-4.1,3.3-7.4,7.4-7.4C20.1,0.3,23.4,3.6,23.4,7.7z M22.7,7.7
		c0-3.7-3-6.7-6.6-6.7c-3.7,0-6.7,3-6.7,6.6c0,3.7,3,6.7,6.7,6.7C19.7,14.3,22.6,11.4,22.7,7.7z"/>
	<path d="M21.7,7.7c0,3.1-2.5,5.7-5.7,5.7c-3.1,0-5.7-2.5-5.7-5.7C10.3,4.5,12.8,2,16,2C19.1,2,21.7,4.5,21.7,7.7z M20.9,7.6
		c0-2.7-2.2-4.9-4.9-4.9c-2.7,0-4.9,2.2-4.9,4.9c0,2.7,2.2,4.9,4.9,4.9C18.7,12.6,20.9,10.4,20.9,7.6z"/>
	<path d="M16.4,7.3c0.4,0,0.7,0,1,0c0.2,0,0.4,0.2,0.6,0.4c-0.2,0.1-0.4,0.3-0.6,0.4c0,0,0,0-0.1,0c-2,0-1.7,0.3-1.7-1.7
		c0-0.4,0-0.8,0-1.2c0-0.2,0.2-0.4,0.4-0.6c0.1,0.2,0.3,0.4,0.3,0.6C16.4,5.8,16.4,6.5,16.4,7.3z"/>
	<path d="M16.5,11.7c-0.2,0.2-0.3,0.4-0.5,0.4c-0.1,0-0.3-0.2-0.4-0.3c0.1-0.1,0.2-0.3,0.4-0.4C16.1,11.4,16.3,11.6,16.5,11.7z"/>
	<path d="M11.9,7.2c0.1,0.2,0.3,0.4,0.3,0.5c0,0.1-0.2,0.2-0.3,0.3c-0.1-0.1-0.3-0.3-0.3-0.4C11.5,7.5,11.8,7.4,11.9,7.2z"/>
	<path d="M20.1,7.2c0.2,0.2,0.4,0.4,0.4,0.5c0,0.1-0.2,0.3-0.4,0.4c-0.1-0.1-0.3-0.2-0.3-0.4C19.8,7.5,19.9,7.4,20.1,7.2z"/>
	<path d="M14.4,4.1c-0.2,0.2-0.4,0.3-0.5,0.3c-0.1-0.1-0.2-0.3-0.4-0.4C13.7,4,13.9,3.8,14,3.8C14.1,3.8,14.2,4,14.4,4.1z"/>
	<path d="M18.5,4.1c-0.2,0.2-0.4,0.3-0.5,0.3c-0.2-0.1-0.2-0.3-0.4-0.4C17.8,4,18,3.8,18.1,3.8C18.2,3.8,18.3,4,18.5,4.1z"/>
	<path d="M12.5,5.1c0.2,0.2,0.4,0.4,0.3,0.5c0,0.2-0.2,0.3-0.4,0.4c-0.1-0.1-0.3-0.3-0.3-0.4C12.1,5.5,12.3,5.3,12.5,5.1z"/>
	<path d="M20,5.6C19.8,5.8,19.7,6,19.6,6c-0.2,0-0.3-0.2-0.4-0.3c0.1-0.1,0.2-0.3,0.4-0.3C19.7,5.3,19.8,5.4,20,5.6z"/>
	<path d="M20.1,9.7c-0.2,0.2-0.4,0.4-0.5,0.3c-0.2-0.1-0.3-0.2-0.4-0.4c0.1-0.1,0.3-0.3,0.4-0.3C19.7,9.4,19.8,9.6,20.1,9.7z"/>
	<path d="M12.4,9.2c0.2,0.2,0.4,0.4,0.4,0.5c0,0.2-0.2,0.3-0.4,0.4c-0.1-0.1-0.3-0.2-0.3-0.4C12.1,9.6,12.3,9.5,12.4,9.2z"/>
	<path d="M14.4,11.2c-0.2,0.2-0.4,0.4-0.5,0.3c-0.1,0-0.2-0.2-0.4-0.4c0.1-0.1,0.2-0.3,0.4-0.3C14.1,10.9,14.2,11.1,14.4,11.2z"/>
	<path d="M18.5,11.3c-0.2,0.2-0.4,0.3-0.5,0.3c-0.1-0.1-0.2-0.3-0.4-0.4c0.1-0.1,0.3-0.3,0.4-0.3C18.2,10.9,18.3,11.1,18.5,11.3z"/>
	<path d="M16.4,3.7c-0.1,0.1-0.3,0.2-0.4,0.2c-0.1,0-0.2-0.2-0.3-0.4c0.1-0.1,0.3-0.3,0.4-0.3c0.2,0,0.3,0.1,0.5,0.2
		C16.5,3.5,16.5,3.6,16.4,3.7z"/>
</g>
</svg>
