<?xml version="1.0" encoding="utf-8"?>
<!-- Generator: Adobe Illustrator 24.3.0, SVG Export Plug-In . SVG Version: 6.00 Build 0)  -->
<svg version="1.1" id="Layer_1" xmlns="http://www.w3.org/2000/svg" xmlns:xlink="http://www.w3.org/1999/xlink" x="0px" y="0px"
	 viewBox="0 0 32 32" style="enable-background:new 0 0 32 32;" xml:space="preserve">
<path d="M31.8,11.2c0,3,0,5.9,0,8.9c0,0.1-0.1,0.3-0.1,0.4c-0.1,1-0.2,2.1-0.6,3c-0.5,1.3-1.3,2.2-2.5,2.8c-1,0.5-2.2,0.7-3.3,0.7
	c-1.1,0.1-2.3,0.1-3.4,0.1c-4.6,0-9.3,0-13.9,0c-1.4,0-2.8-0.2-4.2-0.7c-1.1-0.4-2-1.1-2.5-2.2c-0.6-1.1-0.9-2.4-0.9-3.6
	c-0.1-2.6-0.1-5.1-0.1-7.7c0-1,0-2,0.1-3c0.1-0.8,0.3-1.6,0.7-2.3c0.7-1.2,1.8-1.7,3-2C5.4,5,6.8,4.9,8.1,4.9c5.1,0,10.1,0,15.2,0
	c1.5,0,2.9,0.1,4.4,0.4c0.9,0.2,1.8,0.5,2.5,1.2c0.9,0.8,1.2,1.9,1.4,3C31.6,10.1,31.7,10.6,31.8,11.2z M12.4,15.9
	c0,1.1,0,2.2,0,3.3c0,1,0.7,1.5,1.6,1c2.1-1.1,4.2-2.2,6.3-3.3c0.4-0.2,0.7-0.5,0.7-1c0-0.5-0.3-0.8-0.7-1c-2.1-1.1-4.2-2.2-6.3-3.3
	c-0.9-0.5-1.6,0-1.6,1C12.4,13.7,12.4,14.8,12.4,15.9z"/>
</svg>
