<?xml version="1.0" encoding="utf-8"?>
<!-- Generator: Adobe Illustrator 24.3.0, SVG Export Plug-In . SVG Version: 6.00 Build 0)  -->
<svg version="1.1" id="Layer_1" xmlns="http://www.w3.org/2000/svg" xmlns:xlink="http://www.w3.org/1999/xlink" x="0px" y="0px"
	 viewBox="0 0 200 61.1" style="enable-background:new 0 0 200 61.1;" xml:space="preserve">
<style type="text/css">
	.st0{fill-rule:evenodd;clip-rule:evenodd;fill:#1563DF;}
	.st1{fill:#332C2B;}
	.st2{fill:#FFFFFF;}
	.st3{fill:#BCBCBC;}
</style>
<g>
	<g>
		<g>
			<path class="st0" d="M8.9,31.9l20.5-21l19.5,20.4c-2.3,0.1-4.7,0.3-6.9,0.5l-0.2,0L28.9,18.6L16.2,32.1l-1.7,1.8
				C12.6,33.4,10.6,32.8,8.9,31.9L8.9,31.9z"/>
		</g>
	</g>
	<g>
		<g>
			<path class="st1" d="M14.5,33.9L14.5,33.9c-2.2-0.5-4.1-1.1-5.5-1.9l-0.1,0l0,0l20.5-21l0,0l19.5,20.4h0
				c-2.1,0.1-4.3,0.2-6.9,0.5l-0.2,0l0,0L28.9,18.6L14.5,33.9z M8.9,31.9L8.9,31.9c1.5,0.8,3.4,1.5,5.6,2l14.4-15.3l0,0l12.9,13.3
				l0.2,0c2.6-0.3,4.8-0.4,6.9-0.5L29.4,10.9L8.9,31.9z"/>
		</g>
	</g>
	<g>
		<g>
			<path class="st0" d="M40.3,20.9l5.4-5.6L62,32.4l0.7,0.7c-2.3-0.8-4.9-1.3-7.5-1.6l-9.9-10.2L43,23.7L40.3,20.9z"/>
		</g>
	</g>
	<g>
		<g>
			<path class="st1" d="M62.7,33.1c-2.2-0.8-4.7-1.3-7.5-1.6l0,0l0,0l-9.9-10.2L43,23.7l0,0l-2.7-2.9l0,0l5.4-5.6l0,0L62.7,33.1
				L62.7,33.1z M55.2,31.5c2.8,0.2,5.3,0.8,7.5,1.5l-17-17.8l-5.4,5.6l2.7,2.9l2.3-2.4l0,0L55.2,31.5z"/>
		</g>
	</g>
	<g>
		<g>
			<polygon class="st0" points="17,15.5 29.3,2.9 41.2,15.5 37.2,15.5 29,7 21,15.5 			"/>
		</g>
	</g>
	<g>
		<g>
			<path class="st1" d="M41.3,15.5h-4.1l0,0L29,7L21,15.5h-4l0,0L29.3,2.9l0,0L41.3,15.5z M37.2,15.5h4l-12-12.5L17,15.5h4L29,7h0
				L37.2,15.5z"/>
		</g>
	</g>
	<g>
		<g>
			<path class="st0" d="M26.1,26.2h2.5v2.5h-2.5V26.2z M26.1,29.8h2.5v2.5h-2.5V29.8z M29.7,29.8h2.5v2.5h-2.5V29.8z M29.7,26.2h2.5
				v2.5h-2.5V26.2z"/>
		</g>
	</g>
	<g>
		<g>
			<path class="st0" d="M69.7,49.5c0,1.3-0.4,2.6-1.3,3.7c-2.4,3-5.8,2.9-5.8,2.9c3.3-0.2,8.3-5,5.2-7.4c-3.6-2.8-6.1,4.3-6.8,5.3
				c-0.6,0.7-1.3,1.2-2,1.6c-1.8,0.8-3.5,0.8-3.5,0.8c3.6,1.6,6.5,2,8.9,1.7c6.2-0.9,8.7-6.9,8.6-10.3c0-0.3,0-0.6-0.1-0.9
				c-0.1-0.8-0.3-1.6-0.6-2.4c-6.8-21.5-42.4-7.3-55.1-9c-0.4-0.1-0.8-0.1-1.3-0.2h0h0c-2.7-0.5-5.5-1.2-7.7-2.4
				c-2.3-1.3-4.3-3.4-4.4-6.1c0-1.3,0.4-2.6,1.3-3.7c2.4-3,5.8-2.9,5.8-2.9c-3.3,0.2-8.3,5-5.2,7.4c3.5,2.8,6.1-4.3,6.8-5.3
				c0.6-0.7,1.3-1.2,2-1.6c1.8-0.9,3.5-0.8,3.5-0.8c-3.6-1.6-6.5-2-8.9-1.7C3,19,0.4,25,0.5,28.5c0,0.3,0,0.6,0.1,0.9
				c0.1,0.8,0.3,1.6,0.6,2.4c6.8,21.5,42.4,7.3,55.1,9c0.4,0.1,0.8,0.1,1.3,0.2h0h0c2.7,0.5,5.5,1.2,7.7,2.4
				C67.6,44.7,69.6,46.8,69.7,49.5"/>
		</g>
	</g>
</g>
<g>
	<g>
		<path class="st2" d="M91.6,18.8h-5.2v7.5h6.1l-0.5,3.4h-9.3V5.8h9.2v3.4h-5.5v6.2h5.2L91.6,18.8L91.6,18.8z"/>
	</g>
	<g>
		<path class="st2" d="M94.3,29.7V4.8h3.7v24.9L94.3,29.7L94.3,29.7z"/>
	</g>
	<g>
		<path class="st2" d="M101,11.2h3.7v18.5H101V11.2z M101.1,4.8h3.7v3.9h-3.7V4.8z"/>
	</g>
	<g>
		<path class="st2" d="M106.4,11.2h2V6.8h3.7v4.4h2.3v3.2h-2.3v10.9c0,0.9,0.1,1.6,1.2,1.6c0.3,0,0.8,0,1-0.1v2.8
			c-0.6,0.3-1.6,0.4-2.2,0.4c-2.3,0-3.7-0.8-3.7-4V14.4h-2V11.2z"/>
	</g>
	<g>
		<path class="st2" d="M119.3,21.4v2.7c0,1.4,0.3,2.7,1.7,2.7c1.5,0,1.7-1.3,1.7-2.6v-0.1h3.6v0.1c0,1.9-0.4,5.8-5.2,5.8
			c-4.7,0-5.4-2.9-5.4-6.7v-6.1c0-2.5,0.8-6.4,5.4-6.4c3.9,0,5.2,2.7,5.2,6.3c0,1.1,0,3.1,0,4.2L119.3,21.4L119.3,21.4z M122.8,18.6
			v-1.9c0-1.7-0.4-2.6-1.7-2.6c-1.2,0-1.8,0.8-1.8,2.6v1.9H122.8z"/>
	</g>
	<g>
		<path class="st2" d="M128.8,5.8h3.7v9.4h4V5.8h3.7v23.9h-3.7V18.6h-4v11.1h-3.7V5.8z"/>
	</g>
	<g>
		<path class="st2" d="M153.6,16.9V24c0,4-2,6-5.5,6c-3.6,0-5.4-2.1-5.4-6v-7.3c0-4,2.3-5.8,5.5-5.8C151.6,10.9,153.6,13,153.6,16.9
			z M146.5,16.7v7.5c0,1.5,0.4,2.6,1.8,2.6c1.2,0,1.7-0.9,1.7-2.6v-7.4c0-1.4-0.4-2.5-1.7-2.5C147,14.2,146.5,15.1,146.5,16.7z"/>
	</g>
	<g>
		<path class="st2" d="M156.2,16.6c0-3.7,0-4.5,0-5.4h3.5c0.1,0.6,0.1,1,0.1,1.6c0.6-1.2,1.8-1.9,3.2-1.9c1.5,0,2.5,0.7,3,2
			c0.6-1,1.6-2,3.6-2c2,0,3.6,1,3.6,4.6v14.2h-3.7V16.2c0-1.3-0.3-2-1.4-2c-1.3,0-1.6,1-1.6,2.8v12.7h-3.7V16.3
			c0-1.7-0.5-2.1-1.4-2.1c-1.3,0-1.6,1-1.6,2.8v12.7h-3.7L156.2,16.6L156.2,16.6z"/>
	</g>
	<g>
		<path class="st2" d="M179.4,21.4v2.7c0,1.4,0.3,2.7,1.7,2.7c1.5,0,1.6-1.3,1.6-2.6v-0.1h3.6v0.1c0,1.9-0.4,5.8-5.1,5.8
			c-4.7,0-5.4-2.9-5.4-6.7v-6.1c0-2.5,0.8-6.4,5.4-6.4c3.9,0,5.2,2.7,5.2,6.3c0,1.1,0,3.1,0,4.2L179.4,21.4L179.4,21.4z M182.9,18.6
			v-1.9c0-1.7-0.4-2.6-1.7-2.6c-1.2,0-1.8,0.8-1.8,2.6v1.9H182.9z"/>
	</g>
	<g>
		<path class="st2" d="M191.9,23.9v0.9c0,1.1,0.3,2.1,1.5,2.1c1,0,1.4-0.6,1.4-1.8c0-1.2-0.3-2-2.6-3.5c-2.5-1.6-3.8-3-3.8-5.6
			c0-3.1,1.7-5,4.9-5c3.5,0,4.9,1.9,4.9,5.3V17h-3.6v-1.1c0-1.3-0.4-1.8-1.3-1.8c-0.9,0-1.3,0.7-1.3,1.6c0,1,0.4,1.5,2,2.6
			c3.2,2.1,4.4,3.4,4.4,6.4c0,3.5-1.8,5.4-5.2,5.4c-4.2,0-5.1-2.6-5.1-5.3v-0.8C188.1,23.9,191.9,23.9,191.9,23.9z"/>
	</g>
</g>
<g>
	<path class="st3" d="M84.4,48.9c0.1,1.5,0.9,2.7,2.5,2.7c1.5,0,2.3-0.8,2.3-2.6c0-1.6-0.6-2.4-2.5-3.3c-2.1-1-3-1.9-3-3.9
		c0-1.8,1.1-3.3,3.3-3.3c2.5,0,3.2,1.8,3.2,3.4H89c-0.1-0.6-0.3-2.4-2.1-2.4c-1.4,0-2.1,1-2.1,2.2c0,1.4,0.6,2.1,2.4,3
		c2.4,1.2,3.2,2.3,3.2,4.2c0,2.2-1.2,3.7-3.6,3.7c-2.6,0-3.5-1.7-3.6-3.7C83.2,48.9,84.4,48.9,84.4,48.9z"/>
	<path class="st3" d="M93.1,47.5c0,2.2,0.4,4.1,2.1,4.1c1.8,0,2-1.7,2-2h1.1c0,0.2-0.3,3-3.2,3c-2.9,0-3.3-2.7-3.3-5.2
		c0-3.2,1.1-5.3,3.4-5.3c2.6,0,3.2,2.2,3.2,4.7c0,0.1,0,0.4,0,0.7L93.1,47.5L93.1,47.5z M97.3,46.5c0-2-0.5-3.4-2-3.4
		c-2.1,0-2.2,2.8-2.2,3.4H97.3z"/>
	<path class="st3" d="M105.9,50.8c0,0.7,0.1,1.4,0.1,1.6h-1c-0.1-0.2-0.1-0.8-0.1-1.2c-0.4,0.9-1.2,1.4-2.4,1.4
		c-1.9,0-2.6-1.5-2.6-2.9c0-1.8,1.2-3.2,3.9-3.2c0.5,0,0.8,0,1.2,0v-1.4c0-0.9-0.2-2-1.7-2c-1.7,0-1.8,1.2-1.8,1.9h-1.1
		c0-1.4,0.7-2.9,3-2.9c1.9,0,2.8,0.9,2.8,2.8V50.8z M104.8,47.5c-0.3,0-0.6-0.1-1.1-0.1c-2,0-2.8,1-2.8,2.2c0,1,0.6,2,1.7,2
		c1.6,0,2.2-1.1,2.2-3.5L104.8,47.5L104.8,47.5z"/>
	<path class="st3" d="M108.5,45.7c0-1.6,0-2.7,0-3.5h1.1c0,0.3,0,0.8,0,1.9c0.4-1.2,1.5-2,2.7-2v1.2c-1.8,0.1-2.7,1.4-2.7,3.3v5.8
		h-1.1C108.5,52.4,108.5,45.7,108.5,45.7z"/>
	<path class="st3" d="M119.4,49.4c0,0.4-0.3,3.2-3.1,3.2c-2.6,0-3.3-2.3-3.3-5.3c0-2.9,0.9-5.2,3.4-5.2c2.8,0,2.9,2.7,2.9,3.1h-1.2
		c0-0.4-0.2-2.1-1.8-2.1c-1.6,0-2.2,1.8-2.2,4.2c0,2.7,0.6,4.3,2.2,4.3c1.6,0,1.8-1.6,1.9-2.1H119.4z"/>
	<path class="st3" d="M122.4,38v5.5c0.3-0.9,1.2-1.5,2.5-1.5c1.4,0,2.6,0.9,2.6,3.1v7.2h-1.2v-7c0-1.3-0.4-2.3-1.8-2.3
		c-1.5,0-2.1,1.3-2.1,3.2v6.1h-1.2V38H122.4z"/>
	<path class="st3" d="M130,42.3h1.1v10.1H130V42.3z M130,38h1.1v2H130V38z"/>
	<path class="st3" d="M133.7,45.4c0-2.1,0-2.7,0-3.1h1.1c0,0.2,0.1,0.6,0.1,1.4c0.4-0.9,1.1-1.6,2.5-1.6c1.4,0,2.6,0.8,2.6,3.1v7.2
		h-1.1v-7c0-1.3-0.5-2.2-1.7-2.2c-1.6,0-2.2,1-2.2,3.3v5.9h-1.1L133.7,45.4L133.7,45.4z"/>
	<path class="st3" d="M148.5,51.8c0,2.6-0.6,4.5-3.4,4.5c-2.5,0-3.1-1.7-3.1-2.7h1.2c0,0.7,0.5,1.7,2,1.7c1.9,0,2.3-1.3,2.3-3.5
		v-1.1c-0.4,1.1-1.2,1.7-2.4,1.7c-2,0-3.1-1.7-3.1-4.9c0-3.7,1.4-5.4,3.3-5.4c1.4,0,2,0.7,2.2,1.4c0-0.5,0-1.1,0.1-1.3h1.1
		c0,0.5,0,1.5,0,2.9L148.5,51.8L148.5,51.8z M143,47.5c0,2.6,0.7,3.9,2.1,3.9c1.7,0,2.2-1.7,2.2-4.2c0-2.6-0.4-4.1-2.1-4.1
		C143.8,43.1,143,44.7,143,47.5z"/>
	<path class="st3" d="M155.1,38.7h1.1v5.9h4.9v-5.9h1.1v13.7h-1.1v-6.7h-4.9v6.7h-1.1V38.7z"/>
	<path class="st3" d="M171.2,47.2c0,3.5-1.1,5.4-3.4,5.4c-2.3,0-3.4-1.8-3.4-5.4c0-3.5,1.3-5.1,3.4-5.1
		C170,42.1,171.2,43.8,171.2,47.2z M165.6,47.2c0,3,0.8,4.3,2.2,4.3c1.4,0,2.2-1.4,2.2-4.4c0-2.7-0.7-4.1-2.2-4.1
		C166.4,43.1,165.6,44.3,165.6,47.2z"/>
	<path class="st3" d="M173.2,45.3c0-1.7,0-2.5,0-3h1.1c0,0.3,0.1,0.9,0.1,1.4c0.4-0.9,1.1-1.6,2.3-1.6c1.1,0,1.8,0.4,2.1,1.6
		c0.3-0.9,1.1-1.6,2.4-1.6c1.2,0,2.4,0.6,2.4,2.9v7.4h-1.1v-7.2c0-1.1-0.3-2.1-1.6-2.1c-1.4,0-1.9,1.3-1.9,2.7v6.6h-1.1v-7.1
		c0-1.4-0.4-2.1-1.5-2.1c-1.3,0-2,1.3-2,2.9v6.4h-1.1V45.3z"/>
	<path class="st3" d="M186.7,47.5c0,2.2,0.4,4.1,2.1,4.1c1.8,0,2-1.7,2-2h1.1c0,0.2-0.3,3-3.2,3c-2.9,0-3.3-2.7-3.3-5.2
		c0-3.2,1.1-5.3,3.4-5.3c2.6,0,3.2,2.2,3.2,4.7c0,0.1,0,0.4,0,0.7L186.7,47.5L186.7,47.5z M190.9,46.5c0-2-0.5-3.4-2-3.4
		c-2.1,0-2.1,2.8-2.2,3.4H190.9z"/>
	<path class="st3" d="M194.5,49.5c0.1,1.2,0.7,2.1,2,2.1c1.2,0,1.8-0.8,1.8-1.8c0-1.2-0.6-1.7-2-2.2c-2-0.8-2.6-1.5-2.6-2.9
		c0-1.3,0.8-2.6,2.8-2.6c2.1,0,2.8,1.4,2.8,2.8h-1.1c0-0.5-0.2-1.8-1.7-1.8c-1.1,0-1.6,0.7-1.6,1.6c0,0.9,0.4,1.3,1.8,1.9
		c1.9,0.7,2.8,1.4,2.8,3.2c0,1.8-1.1,2.9-3.1,2.9c-2,0-3-1.2-3.1-3L194.5,49.5L194.5,49.5z"/>
</g>
</svg>
