<?xml version="1.0" encoding="utf-8"?>
<!-- Generator: Adobe Illustrator 24.3.0, SVG Export Plug-In . SVG Version: 6.00 Build 0)  -->
<svg version="1.0" id="Layer_1" xmlns="http://www.w3.org/2000/svg" xmlns:xlink="http://www.w3.org/1999/xlink" x="0px" y="0px"
	 viewBox="0 0 32 32" style="enable-background:new 0 0 32 32;" xml:space="preserve">
<g>
	<g>
		<defs>
			<path id="SVGID_17_" d="M6.8,11.2C7.3,8,8.1,4.9,9,1.9c3-1.5,6.3-2,9.5-1.4c-4.1,2.9-7.8,6.3-11.1,10.1C7.2,10.8,7,11,6.8,11.2z"
				/>
		</defs>
		<use xlink:href="#SVGID_17_"  style="overflow:visible;fill:#1563DF;"/>
		<clipPath id="SVGID_1_">
			<use xlink:href="#SVGID_17_"  style="overflow:visible;"/>
		</clipPath>
		<g style="clip-path:url(#SVGID_1_);">
			
				<image style="overflow:visible;" width="138" height="137" xlink:href="BDD0D1C.png"  transform="matrix(0.24 0 0 0.24 2.16 -1.44)">
			</image>
		</g>
	</g>
	<g>
		<defs>
			<path id="SVGID_20_" d="M19.1,26c-2.5,1.8-5.2,3.5-7.9,5c-2.3-0.7-4.5-2-6.3-3.9c-0.5-0.5-1.1-1.1-1.5-1.7
				c5.1,0.8,10.2,1,15.3,0.6C18.8,26,19,26,19.1,26z"/>
		</defs>
		<use xlink:href="#SVGID_20_"  style="overflow:visible;fill:#1563DF;"/>
		<clipPath id="SVGID_2_">
			<use xlink:href="#SVGID_20_"  style="overflow:visible;"/>
		</clipPath>
		<g style="clip-path:url(#SVGID_2_);">
			
				<image style="overflow:visible;" width="137" height="137" xlink:href="BDD0D1D.png"  transform="matrix(0.24 0 0 0.24 -0.48 -0.48)">
			</image>
		</g>
	</g>
	<g>
		<defs>
			<path id="SVGID_23_" d="M25.2,21.1c-0.5,3.1-1.3,6.1-2.2,9.1c-3,1.5-6.3,1.9-9.5,1.4C17.8,28.5,21.7,25,25.2,21.1
				C25.2,21.1,25.2,21.1,25.2,21.1z"/>
		</defs>
		<use xlink:href="#SVGID_23_"  style="overflow:visible;fill:#1563DF;"/>
		<clipPath id="SVGID_3_">
			<use xlink:href="#SVGID_23_"  style="overflow:visible;"/>
		</clipPath>
		<g style="clip-path:url(#SVGID_3_);">
			
				<image style="overflow:visible;" width="137" height="137" xlink:href="BDD0D1B.png"  transform="matrix(0.24 0 0 0.24 -0.48 -0.48)">
			</image>
		</g>
	</g>
	<g>
		<defs>
			<path id="SVGID_26_" d="M31.6,18.3c-2.7-3.7-5.8-7.1-9.2-10.2c-0.5-0.5-0.9-0.9-1.4-1.2c3.1,0.5,6.1,1.2,9.1,2.2
				C31.6,11.9,32,15.2,31.6,18.3z"/>
		</defs>
		<use xlink:href="#SVGID_26_"  style="overflow:visible;fill:#1563DF;"/>
		<clipPath id="SVGID_4_">
			<use xlink:href="#SVGID_26_"  style="overflow:visible;"/>
		</clipPath>
		<g style="clip-path:url(#SVGID_4_);">
			
				<image style="overflow:visible;" width="137" height="137" xlink:href="BDD0D24.png"  transform="matrix(0.24 0 0 0.24 -0.48 -0.48)">
			</image>
		</g>
	</g>
	<g>
		<defs>
			<path id="SVGID_29_" d="M13,6.1C13,6.1,13,6.1,13,6.1C13,6.1,13,6.1,13,6.1l0.3,0l0,0c5.2-0.3,10.5,0,15.7,1
				c-0.5-0.8-1.1-1.5-1.8-2.2C25.3,3,23.1,1.7,20.7,1c-2.7,1.5-5.4,3.2-7.9,5.1L13,6.1z"/>
		</defs>
		<use xlink:href="#SVGID_29_"  style="overflow:visible;fill:#1563DF;"/>
		<clipPath id="SVGID_5_">
			<use xlink:href="#SVGID_29_"  style="overflow:visible;"/>
		</clipPath>
		<g style="clip-path:url(#SVGID_5_);">
			
				<image style="overflow:visible;" width="155" height="155" xlink:href="BDD0D27.png"  transform="matrix(0.24 0 0 0.24 -6 -3.36)">
			</image>
		</g>
	</g>
	<g>
		<defs>
			<path id="SVGID_32_" d="M6.1,19.2C6.1,19.2,6.1,19.2,6.1,19.2C6.1,19.1,6.1,19.1,6.1,19.2l-0.1-1l0,0c-0.3-5,0-10,0.9-15
				C6.2,3.6,5.5,4.2,4.9,4.9C3,6.7,1.7,8.9,1,11.2C2.5,14,4.2,16.7,6.1,19.2L6.1,19.2z"/>
		</defs>
		<use xlink:href="#SVGID_32_"  style="overflow:visible;fill:#1563DF;"/>
		<clipPath id="SVGID_6_">
			<use xlink:href="#SVGID_32_"  style="overflow:visible;"/>
		</clipPath>
		<g style="clip-path:url(#SVGID_6_);">
			
				<image style="overflow:visible;" width="137" height="137" xlink:href="BDD0D25.png"  transform="matrix(0.24 0 0 0.24 -0.48 -0.48)">
			</image>
		</g>
	</g>
	<g>
		<defs>
			<path id="SVGID_35_" d="M11.2,25.3C11.2,25.3,11.2,25.3,11.2,25.3C11.2,25.3,11.1,25.3,11.2,25.3l-0.1-0.1l0,0
				c-4-3.4-7.5-7.4-10.6-11.7c-0.5,3.4,0,6.9,1.7,9.9C5.1,24.3,8.2,24.9,11.2,25.3L11.2,25.3z"/>
		</defs>
		<use xlink:href="#SVGID_35_"  style="overflow:visible;fill:#1563DF;"/>
		<clipPath id="SVGID_7_">
			<use xlink:href="#SVGID_35_"  style="overflow:visible;"/>
		</clipPath>
		<g style="clip-path:url(#SVGID_7_);">
			
				<image style="overflow:visible;" width="137" height="137" xlink:href="BDD0D2B.png"  transform="matrix(0.24 0 0 0.24 -0.48 -0.48)">
			</image>
		</g>
	</g>
	<g>
		<defs>
			<path id="SVGID_38_" d="M26.1,12.8l0,0.1c0,0,0,0,0,0c0,0,0,0,0,0l0,0.1l0,0c0.3,5.3-0.1,10.6-1.1,15.9c0.8-0.5,1.5-1.1,2.2-1.8
				c1.9-1.9,3.2-4.2,3.9-6.6C29.6,17.9,27.9,15.3,26.1,12.8z"/>
		</defs>
		<use xlink:href="#SVGID_38_"  style="overflow:visible;fill:#1563DF;"/>
		<clipPath id="SVGID_8_">
			<use xlink:href="#SVGID_38_"  style="overflow:visible;"/>
		</clipPath>
		<g style="clip-path:url(#SVGID_8_);">
			
				<image style="overflow:visible;" width="137" height="137" xlink:href="BDD0D2C.png"  transform="matrix(0.24 0 0 0.24 -0.48 -0.48)">
			</image>
		</g>
	</g>
</g>
</svg>
