<?xml version="1.0" encoding="utf-8"?>
<!-- Generator: Adobe Illustrator 24.3.0, SVG Export Plug-In . SVG Version: 6.00 Build 0)  -->
<svg version="1.1" id="Layer_1" xmlns="http://www.w3.org/2000/svg" xmlns:xlink="http://www.w3.org/1999/xlink" x="0px" y="0px"
	 viewBox="0 0 200 61.12" style="enable-background:new 0 0 200 61.12;" xml:space="preserve">
<style type="text/css">
	.st0{fill-rule:evenodd;clip-rule:evenodd;fill:#1563DF;}
	.st1{fill:#332C2B;}
	.st2{fill:#5B5B5B;}
</style>
<g>
	<g>
		<g>
			<g>
				<path class="st0" d="M8.91,31.9L29.4,10.94l19.5,20.43c-2.35,0.07-4.68,0.26-6.9,0.5l-0.22,0.02L28.85,18.57l-12.7,13.52
					l-1.66,1.77c-1.91-0.42-3.87-1.02-5.52-1.93L8.91,31.9z"/>
			</g>
		</g>
		<g>
			<g>
				<path class="st1" d="M14.49,33.87L14.49,33.87c-2.22-0.49-4.07-1.14-5.53-1.93L8.9,31.9l0.01-0.01L29.4,10.92l0.01,0.01
					l19.51,20.44l-0.02,0c-2.08,0.06-4.33,0.22-6.9,0.5l-0.22,0.02l0,0L28.85,18.58L14.49,33.87z M8.92,31.9l0.05,0.03
					c1.45,0.8,3.31,1.45,5.51,1.93l14.37-15.29l0.01,0.01l12.92,13.31L42,31.86c2.56-0.27,4.81-0.44,6.88-0.5L29.4,10.95L8.92,31.9z
					"/>
			</g>
		</g>
		<g>
			<g>
				<path class="st0" d="M40.28,20.86l5.43-5.56l16.3,17.08l0.68,0.71c-2.35-0.84-4.9-1.32-7.52-1.56l-9.89-10.22l-2.27,2.41
					L40.28,20.86z"/>
			</g>
		</g>
		<g>
			<g>
				<path class="st1" d="M62.69,33.09c-2.19-0.78-4.71-1.3-7.52-1.56l0,0l0,0l-9.89-10.21l-2.27,2.41l-0.01-0.01l-2.74-2.87
					l0.01-0.01l5.44-5.56l0.01,0.01L62.7,33.08L62.69,33.09z M55.18,31.52c2.79,0.25,5.31,0.77,7.49,1.55L45.71,15.31l-5.42,5.55
					l2.73,2.86l2.27-2.41l0.01,0.01L55.18,31.52z"/>
			</g>
		</g>
		<g>
			<g>
				<polygon class="st0" points="17.02,15.46 29.27,2.92 41.25,15.46 37.19,15.46 28.98,7.01 21.04,15.46 				"/>
			</g>
		</g>
		<g>
			<g>
				<path class="st1" d="M41.26,15.47h-4.07l0,0l-8.2-8.45l-7.94,8.45H17l0.01-0.01L29.27,2.91l0.01,0.01L41.26,15.47z M37.2,15.46
					h4.03L29.27,2.93L17.04,15.46h4l7.95-8.46L28.99,7L37.2,15.46z"/>
			</g>
		</g>
		<g>
			<g>
				<path class="st0" d="M26.14,26.22h2.45v2.45h-2.45V26.22z M26.14,29.75h2.45v2.45h-2.45V29.75z M29.68,29.75h2.45v2.45h-2.45
					V29.75z M29.68,26.22h2.45v2.45h-2.45V26.22z"/>
			</g>
		</g>
		<g>
			<g>
				<path class="st0" d="M69.66,49.52c0.01,1.27-0.4,2.59-1.28,3.66c-2.4,2.95-5.78,2.93-5.78,2.93c3.35-0.17,8.34-4.95,5.22-7.39
					c-3.55-2.78-6.06,4.34-6.84,5.34c-0.58,0.73-1.29,1.24-2,1.59c-1.75,0.85-3.54,0.76-3.54,0.76c3.56,1.63,6.51,2.05,8.91,1.69
					c6.16-0.9,8.72-6.86,8.64-10.31c-0.01-0.31-0.03-0.62-0.07-0.92c-0.11-0.83-0.32-1.63-0.63-2.38
					c-6.83-21.51-42.38-7.3-55.07-9.02c-0.42-0.06-0.84-0.12-1.27-0.2l-0.01,0l-0.01,0c-2.68-0.46-5.5-1.21-7.74-2.44
					c-2.34-1.28-4.33-3.35-4.36-6.11c-0.01-1.27,0.4-2.59,1.28-3.66c2.4-2.95,5.78-2.93,5.78-2.93c-3.35,0.17-8.34,4.95-5.22,7.39
					c3.55,2.78,6.06-4.34,6.84-5.34c0.58-0.73,1.29-1.24,2-1.59c1.75-0.85,3.54-0.76,3.54-0.76c-3.56-1.63-6.51-2.04-8.91-1.69
					C2.97,19.05,0.42,25,0.5,28.45c0.01,0.31,0.03,0.62,0.07,0.92C0.68,30.2,0.89,31,1.21,31.75c6.83,21.51,42.38,7.3,55.07,9.02
					c0.42,0.06,0.84,0.12,1.27,0.2l0.01,0l0.01,0c2.68,0.46,5.5,1.21,7.74,2.44C67.64,44.69,69.64,46.76,69.66,49.52"/>
			</g>
		</g>
	</g>
	<g>
		<g>
			<g>
				<path d="M91.59,18.81h-5.25v7.52h6.05l-0.47,3.39h-9.27V5.84h9.22v3.42h-5.54v6.17h5.25V18.81z"/>
			</g>
			<g>
				<path d="M94.26,29.72V4.79h3.68v24.92H94.26z"/>
			</g>
			<g>
				<path d="M101.02,11.21h3.68v18.5h-3.68V11.21z M101.05,4.79h3.68v3.94h-3.68V4.79z"/>
			</g>
			<g>
				<path d="M106.41,11.21h1.96V6.77h3.68v4.44h2.32v3.23h-2.32v10.94c0,0.88,0.12,1.57,1.24,1.57c0.33,0,0.81-0.04,1-0.11v2.78
					c-0.62,0.3-1.55,0.37-2.25,0.37c-2.31,0-3.67-0.75-3.67-3.95v-11.6h-1.96V11.21z"/>
			</g>
			<g>
				<path d="M119.26,21.44v2.72c0,1.43,0.33,2.74,1.73,2.74c1.47,0,1.65-1.31,1.65-2.64v-0.09h3.59v0.08c0,1.94-0.41,5.75-5.15,5.75
					c-4.71,0-5.4-2.92-5.4-6.66v-6.06c0-2.53,0.8-6.35,5.38-6.35c3.95,0,5.24,2.66,5.24,6.33c0,1.08,0,3.13,0,4.19H119.26z
					 M122.77,18.56v-1.89c0-1.71-0.39-2.64-1.72-2.64c-1.19,0-1.76,0.84-1.76,2.64v1.89H122.77z"/>
			</g>
			<g>
				<path d="M128.8,5.84h3.68v9.43h3.96V5.84h3.68v23.88h-3.68V18.65h-3.96v11.07h-3.68V5.84z"/>
			</g>
			<g>
				<path d="M153.62,16.89v7.11c0,3.96-1.97,6-5.46,6c-3.61,0-5.38-2.08-5.38-5.97v-7.29c0-4.01,2.28-5.81,5.49-5.81
					C151.61,10.93,153.62,12.98,153.62,16.89z M146.46,16.68v7.48c0,1.5,0.45,2.58,1.76,2.58c1.23,0,1.71-0.91,1.71-2.65v-7.44
					c0-1.43-0.38-2.46-1.73-2.46C146.99,14.19,146.46,15.05,146.46,16.68z"/>
			</g>
			<g>
				<path d="M156.18,16.58c0-3.68,0-4.53-0.04-5.36h3.52c0.1,0.56,0.1,1,0.13,1.63c0.65-1.25,1.76-1.92,3.25-1.92
					c1.51,0,2.51,0.66,2.96,2c0.65-1.03,1.61-2,3.56-2c2.01,0,3.65,1.01,3.65,4.63v14.16h-3.68V16.23c0-1.29-0.34-2-1.38-2
					c-1.3,0-1.6,1-1.6,2.83v12.66h-3.71v-13.4c0-1.69-0.5-2.09-1.39-2.09c-1.31,0-1.59,1.01-1.59,2.78v12.71h-3.68V16.58z"/>
			</g>
			<g>
				<path d="M179.39,21.44v2.72c0,1.43,0.33,2.74,1.73,2.74c1.47,0,1.65-1.31,1.65-2.64v-0.09h3.59v0.08c0,1.94-0.41,5.75-5.15,5.75
					c-4.71,0-5.4-2.92-5.4-6.66v-6.06c0-2.53,0.8-6.35,5.38-6.35c3.95,0,5.24,2.66,5.24,6.33c0,1.08,0,3.13,0,4.19H179.39z
					 M182.9,18.56v-1.89c0-1.71-0.39-2.64-1.72-2.64c-1.19,0-1.76,0.84-1.76,2.64v1.89H182.9z"/>
			</g>
			<g>
				<path d="M191.87,23.92v0.85c0,1.14,0.32,2.13,1.5,2.13c1,0,1.43-0.61,1.43-1.84c0-1.2-0.34-2.02-2.58-3.47
					c-2.54-1.64-3.77-2.98-3.77-5.62c0-3.13,1.68-5.04,4.9-5.04c3.5,0,4.89,1.93,4.89,5.32v0.74h-3.56v-1.14
					c0-1.29-0.43-1.82-1.31-1.82c-0.91,0-1.27,0.66-1.27,1.64c0,1.04,0.35,1.51,2.03,2.58c3.24,2.06,4.38,3.37,4.38,6.4
					c0,3.54-1.78,5.35-5.25,5.35c-4.16,0-5.11-2.61-5.11-5.26v-0.82H191.87z"/>
			</g>
		</g>
		<g>
			<path class="st2" d="M84.36,48.89c0.1,1.51,0.86,2.68,2.46,2.68c1.52,0,2.34-0.8,2.34-2.58c0-1.56-0.59-2.37-2.51-3.29
				c-2.07-0.99-3.03-1.93-3.03-3.9c0-1.77,1.13-3.27,3.28-3.27c2.49,0,3.19,1.83,3.23,3.37h-1.14c-0.06-0.62-0.27-2.36-2.14-2.36
				c-1.44,0-2.05,1-2.05,2.16c0,1.43,0.64,2.11,2.4,2.95c2.37,1.15,3.17,2.3,3.17,4.25c0,2.17-1.18,3.68-3.57,3.68
				c-2.6,0-3.48-1.72-3.6-3.69H84.36z"/>
			<path class="st2" d="M93.09,47.48c0,2.25,0.41,4.1,2.14,4.1c1.75,0,1.98-1.7,2.03-2h1.13c-0.02,0.24-0.33,3-3.17,3
				c-2.87,0-3.27-2.73-3.27-5.24c0-3.21,1.05-5.26,3.36-5.26c2.56,0,3.16,2.19,3.16,4.68c0,0.13,0,0.42-0.02,0.7H93.09z
				 M97.33,46.54c0-2.03-0.47-3.44-2.03-3.44c-2.05,0-2.15,2.75-2.18,3.44H97.33z"/>
			<path class="st2" d="M105.92,50.77c0,0.69,0.06,1.37,0.08,1.63h-1.04c-0.06-0.24-0.1-0.81-0.1-1.23
				c-0.37,0.9-1.17,1.41-2.44,1.41c-1.95,0-2.63-1.51-2.63-2.9c0-1.77,1.19-3.21,3.88-3.21c0.53,0,0.82,0,1.15,0.04v-1.44
				c0-0.87-0.18-1.99-1.69-1.99c-1.68,0-1.77,1.22-1.83,1.91h-1.11c0.04-1.43,0.73-2.89,2.97-2.89c1.89,0,2.76,0.94,2.76,2.79V50.77
				z M104.84,47.47c-0.26-0.04-0.56-0.06-1.1-0.06c-1.98,0-2.81,0.96-2.81,2.2c0,1.05,0.57,1.98,1.74,1.98
				c1.59,0,2.18-1.11,2.18-3.48V47.47z"/>
			<path class="st2" d="M108.46,45.73c0-1.6,0-2.73-0.02-3.46h1.1c0.02,0.3,0.04,0.79,0.04,1.86c0.45-1.25,1.46-1.99,2.69-2.01v1.23
				c-1.78,0.09-2.68,1.42-2.68,3.26v5.79h-1.13V45.73z"/>
			<path class="st2" d="M119.43,49.44c-0.04,0.43-0.27,3.15-3.09,3.15c-2.56,0-3.27-2.35-3.27-5.27c0-2.91,0.94-5.22,3.41-5.22
				c2.8,0,2.95,2.66,2.95,3.09h-1.17c-0.02-0.42-0.19-2.09-1.79-2.09c-1.63,0-2.23,1.77-2.23,4.2c0,2.65,0.64,4.28,2.15,4.28
				c1.61,0,1.82-1.62,1.9-2.14H119.43z"/>
			<path class="st2" d="M122.44,38.05v5.55c0.35-0.9,1.19-1.5,2.49-1.5c1.42,0,2.57,0.86,2.57,3.08v7.23h-1.15v-6.99
				c0-1.34-0.43-2.28-1.77-2.28c-1.53,0-2.14,1.28-2.14,3.22v6.06h-1.15V38.05H122.44z"/>
			<path class="st2" d="M130,42.27h1.13v10.14H130V42.27z M130.01,38.05h1.13v2.02h-1.13V38.05z"/>
			<path class="st2" d="M133.67,45.4c0-2.07-0.02-2.68-0.02-3.13h1.1c0.02,0.24,0.05,0.64,0.05,1.43c0.35-0.88,1.08-1.6,2.46-1.6
				c1.4,0,2.61,0.76,2.61,3.09v7.22h-1.15v-7.02c0-1.33-0.48-2.25-1.71-2.25c-1.55,0-2.19,1.05-2.19,3.33v5.94h-1.15V45.4z"/>
			<path class="st2" d="M148.47,51.83c0,2.58-0.57,4.5-3.42,4.5c-2.52,0-3.06-1.7-3.12-2.74h1.16c0.04,0.65,0.46,1.74,1.99,1.74
				c1.87,0,2.26-1.35,2.26-3.5v-1.11c-0.35,1.11-1.24,1.68-2.43,1.68c-2,0-3.05-1.67-3.05-4.94c0-3.72,1.39-5.36,3.27-5.36
				c1.39,0,2.02,0.68,2.21,1.42c-0.01-0.5,0.04-1.06,0.07-1.26h1.08c-0.02,0.5-0.02,1.53-0.02,2.88V51.83z M143.04,47.45
				c0,2.6,0.74,3.92,2.12,3.92c1.72,0,2.21-1.71,2.21-4.15c0-2.6-0.41-4.09-2.07-4.09C143.82,43.13,143.04,44.68,143.04,47.45z"/>
			<path class="st2" d="M155.08,38.7h1.15v5.93h4.87V38.7h1.15v13.71h-1.15v-6.74h-4.87v6.74h-1.15V38.7z"/>
			<path class="st2" d="M171.16,47.21c0,3.52-1.14,5.39-3.36,5.39c-2.31,0-3.38-1.8-3.38-5.36c0-3.49,1.32-5.13,3.42-5.13
				C169.98,42.1,171.16,43.8,171.16,47.21z M165.59,47.25c0,2.98,0.81,4.34,2.21,4.34c1.42,0,2.19-1.39,2.19-4.36
				c0-2.73-0.74-4.1-2.2-4.1C166.43,43.11,165.59,44.28,165.59,47.25z"/>
			<path class="st2" d="M173.16,45.31c0-1.73,0-2.55-0.02-3.04h1.1c0.04,0.33,0.05,0.87,0.05,1.4c0.38-0.92,1.08-1.56,2.28-1.56
				c1.05,0,1.81,0.44,2.12,1.56c0.34-0.86,1.14-1.56,2.44-1.56c1.19,0,2.41,0.57,2.41,2.91v7.4h-1.12v-7.18
				c0-1.11-0.31-2.09-1.57-2.09c-1.41,0-1.92,1.31-1.92,2.71v6.56h-1.13v-7.14c0-1.38-0.45-2.13-1.54-2.13
				c-1.31,0-1.97,1.27-1.97,2.88v6.39h-1.13V45.31z"/>
			<path class="st2" d="M186.69,47.48c0,2.25,0.41,4.1,2.13,4.1c1.75,0,1.98-1.7,2.03-2h1.13c-0.02,0.24-0.33,3-3.17,3
				c-2.87,0-3.27-2.73-3.27-5.24c0-3.21,1.05-5.26,3.36-5.26c2.56,0,3.16,2.19,3.16,4.68c0,0.13,0,0.42-0.02,0.7H186.69z
				 M190.92,46.54c0-2.03-0.47-3.44-2.03-3.44c-2.05,0-2.15,2.75-2.18,3.44H190.92z"/>
			<path class="st2" d="M194.53,49.54c0.08,1.23,0.74,2.07,1.98,2.07c1.23,0,1.83-0.77,1.83-1.8c0-1.17-0.62-1.69-2-2.24
				c-1.98-0.78-2.6-1.49-2.6-2.89c0-1.35,0.82-2.59,2.76-2.59c2.11,0,2.76,1.43,2.78,2.78h-1.13c-0.03-0.53-0.17-1.81-1.7-1.81
				c-1.09,0-1.56,0.67-1.56,1.56c0,0.88,0.35,1.31,1.83,1.89c1.89,0.74,2.78,1.42,2.78,3.2c0,1.79-1.12,2.86-3.05,2.86
				c-1.97,0-2.98-1.19-3.05-3.05H194.53z"/>
		</g>
	</g>
</g>
</svg>
